<svg xmlns="http://www.w3.org/2000/svg" xmlns:xlink="http://www.w3.org/1999/xlink" contentStyleType="text/css" height="1169px" preserveAspectRatio="none" style="width:2933px;height:1169px;background:#FFFFFF;" version="1.1" viewBox="0 0 2933 1169" width="2933px" zoomAndPan="magnify"><defs/><g><!--cluster org--><g id="cluster_org"><path d="M8.5,6.0137 L32.0518,6.0137 A3.75,3.75 0 0 1 34.5518,8.5137 L41.5518,30.6348 L2923.5,30.6348 A2.5,2.5 0 0 1 2926,33.1348 L2926,1159.5137 A2.5,2.5 0 0 1 2923.5,1162.0137 L8.5,1162.0137 A2.5,2.5 0 0 1 6,1159.5137 L6,8.5137 A2.5,2.5 0 0 1 8.5,6.0137 " fill="none" style="stroke:#000000;stroke-width:1.5;"/><line style="stroke:#000000;stroke-width:1.5;" x1="6" x2="41.5518" y1="30.6348" y2="30.6348"/><text fill="#000000" font-family="sans-serif" font-size="14" font-weight="bold" lengthAdjust="spacing" textLength="22.5518" x="10" y="23.1211">org</text></g><!--cluster example--><g id="cluster_example"><path d="M32.5,245.0137 L89.5342,245.0137 A3.75,3.75 0 0 1 92.0342,247.5137 L99.0342,269.6348 L2899.5,269.6348 A2.5,2.5 0 0 1 2902,272.1348 L2902,1135.5137 A2.5,2.5 0 0 1 2899.5,1138.0137 L32.5,1138.0137 A2.5,2.5 0 0 1 30,1135.5137 L30,247.5137 A2.5,2.5 0 0 1 32.5,245.0137 " fill="none" style="stroke:#000000;stroke-width:1.5;"/><line style="stroke:#000000;stroke-width:1.5;" x1="30" x2="99.0342" y1="269.6348" y2="269.6348"/><text fill="#000000" font-family="sans-serif" font-size="14" font-weight="bold" lengthAdjust="spacing" textLength="56.0342" x="34" y="262.1211">example</text></g><!--cluster oscdspring--><g id="cluster_oscdspring"><path d="M56.5,290.0137 L132.9551,290.0137 A3.75,3.75 0 0 1 135.4551,292.5137 L142.4551,314.6348 L2875.5,314.6348 A2.5,2.5 0 0 1 2878,317.1348 L2878,1111.5137 A2.5,2.5 0 0 1 2875.5,1114.0137 L56.5,1114.0137 A2.5,2.5 0 0 1 54,1111.5137 L54,292.5137 A2.5,2.5 0 0 1 56.5,290.0137 " fill="none" style="stroke:#000000;stroke-width:1.5;"/><line style="stroke:#000000;stroke-width:1.5;" x1="54" x2="142.4551" y1="314.6348" y2="314.6348"/><text fill="#000000" font-family="sans-serif" font-size="14" font-weight="bold" lengthAdjust="spacing" textLength="75.4551" x="58" y="307.1211">oscdspring</text></g><!--cluster process_management--><g id="cluster_process_management"><path d="M2291.5,335.0137 L2440.3408,335.0137 A3.75,3.75 0 0 1 2442.8408,337.5137 L2449.8408,359.6348 L2851.5,359.6348 A2.5,2.5 0 0 1 2854,362.1348 L2854,746.5137 A2.5,2.5 0 0 1 2851.5,749.0137 L2291.5,749.0137 A2.5,2.5 0 0 1 2289,746.5137 L2289,337.5137 A2.5,2.5 0 0 1 2291.5,335.0137 " fill="none" style="stroke:#000000;stroke-width:1.5;"/><line style="stroke:#000000;stroke-width:1.5;" x1="2289" x2="2449.8408" y1="359.6348" y2="359.6348"/><text fill="#000000" font-family="sans-serif" font-size="14" font-weight="bold" lengthAdjust="spacing" textLength="147.8408" x="2293" y="352.1211">process_management</text></g><!--cluster interrupt_management--><g id="cluster_interrupt_management"><path d="M2100.5,381.5137 L2253.1963,381.5137 A3.75,3.75 0 0 1 2255.6963,384.0137 L2262.6963,406.1348 L2262.5,406.1348 A2.5,2.5 0 0 1 2265,408.6348 L2265,480.0137 A2.5,2.5 0 0 1 2262.5,482.5137 L2100.5,482.5137 A2.5,2.5 0 0 1 2098,480.0137 L2098,384.0137 A2.5,2.5 0 0 1 2100.5,381.5137 " fill="none" style="stroke:#000000;stroke-width:1.5;"/><line style="stroke:#000000;stroke-width:1.5;" x1="2098" x2="2262.6963" y1="406.1348" y2="406.1348"/><text fill="#000000" font-family="sans-serif" font-size="14" font-weight="bold" lengthAdjust="spacing" textLength="151.6963" x="2102" y="398.6211">interrupt_management</text></g><!--cluster util--><g id="cluster_util"><path d="M1681.5,381.5137 L1703.4932,381.5137 A3.75,3.75 0 0 1 1705.9932,384.0137 L1712.9932,406.1348 L2071.5,406.1348 A2.5,2.5 0 0 1 2074,408.6348 L2074,480.0137 A2.5,2.5 0 0 1 2071.5,482.5137 L1681.5,482.5137 A2.5,2.5 0 0 1 1679,480.0137 L1679,384.0137 A2.5,2.5 0 0 1 1681.5,381.5137 " fill="none" style="stroke:#000000;stroke-width:1.5;"/><line style="stroke:#000000;stroke-width:1.5;" x1="1679" x2="1712.9932" y1="406.1348" y2="406.1348"/><text fill="#000000" font-family="sans-serif" font-size="14" font-weight="bold" lengthAdjust="spacing" textLength="20.9932" x="1683" y="398.6211">util</text></g><!--cluster main--><g id="cluster_main"><path d="M1264.5,381.5137 L1298.1758,381.5137 A3.75,3.75 0 0 1 1300.6758,384.0137 L1307.6758,406.1348 L1652.5,406.1348 A2.5,2.5 0 0 1 1655,408.6348 L1655,690.5137 A2.5,2.5 0 0 1 1652.5,693.0137 L1264.5,693.0137 A2.5,2.5 0 0 1 1262,690.5137 L1262,384.0137 A2.5,2.5 0 0 1 1264.5,381.5137 " fill="none" style="stroke:#000000;stroke-width:1.5;"/><line style="stroke:#000000;stroke-width:1.5;" x1="1262" x2="1307.6758" y1="406.1348" y2="406.1348"/><text fill="#000000" font-family="sans-serif" font-size="14" font-weight="bold" lengthAdjust="spacing" textLength="32.6758" x="1266" y="398.6211">main</text></g><!--cluster controller--><g id="cluster_controller"><path d="M891.5,381.5137 L957.0654,381.5137 A3.75,3.75 0 0 1 959.5654,384.0137 L966.5654,406.1348 L1235.5,406.1348 A2.5,2.5 0 0 1 1238,408.6348 L1238,690.5137 A2.5,2.5 0 0 1 1235.5,693.0137 L891.5,693.0137 A2.5,2.5 0 0 1 889,690.5137 L889,384.0137 A2.5,2.5 0 0 1 891.5,381.5137 " fill="none" style="stroke:#000000;stroke-width:1.5;"/><line style="stroke:#000000;stroke-width:1.5;" x1="889" x2="966.5654" y1="406.1348" y2="406.1348"/><text fill="#000000" font-family="sans-serif" font-size="14" font-weight="bold" lengthAdjust="spacing" textLength="64.5654" x="893" y="398.6211">controller</text></g><!--cluster memory_management--><g id="cluster_memory_management"><path d="M1986.5,773.0137 L2136.1133,773.0137 A3.75,3.75 0 0 1 2138.6133,775.5137 L2145.6133,797.6348 L2851.5,797.6348 A2.5,2.5 0 0 1 2854,800.1348 L2854,1087.5137 A2.5,2.5 0 0 1 2851.5,1090.0137 L1986.5,1090.0137 A2.5,2.5 0 0 1 1984,1087.5137 L1984,775.5137 A2.5,2.5 0 0 1 1986.5,773.0137 " fill="none" style="stroke:#000000;stroke-width:1.5;"/><line style="stroke:#000000;stroke-width:1.5;" x1="1984" x2="2145.6133" y1="797.6348" y2="797.6348"/><text fill="#000000" font-family="sans-serif" font-size="14" font-weight="bold" lengthAdjust="spacing" textLength="148.6133" x="1988" y="790.1211">memory_management</text></g><!--cluster file_disk_management--><g id="cluster_file_disk_management"><path d="M1358.5,773.0137 L1509.6719,773.0137 A3.75,3.75 0 0 1 1512.1719,775.5137 L1519.1719,797.6348 L1957.5,797.6348 A2.5,2.5 0 0 1 1960,800.1348 L1960,1087.5137 A2.5,2.5 0 0 1 1957.5,1090.0137 L1358.5,1090.0137 A2.5,2.5 0 0 1 1356,1087.5137 L1356,775.5137 A2.5,2.5 0 0 1 1358.5,773.0137 " fill="none" style="stroke:#000000;stroke-width:1.5;"/><line style="stroke:#000000;stroke-width:1.5;" x1="1356" x2="1519.1719" y1="797.6348" y2="797.6348"/><text fill="#000000" font-family="sans-serif" font-size="14" font-weight="bold" lengthAdjust="spacing" textLength="150.1719" x="1360" y="790.1211">file_disk_management</text></g><!--cluster snapshot--><g id="cluster_snapshot"><path d="M265.5,381.5137 L328.7275,381.5137 A3.75,3.75 0 0 1 331.2275,384.0137 L338.2275,406.1348 L430.5,406.1348 A2.5,2.5 0 0 1 433,408.6348 L433,480.0137 A2.5,2.5 0 0 1 430.5,482.5137 L265.5,482.5137 A2.5,2.5 0 0 1 263,480.0137 L263,384.0137 A2.5,2.5 0 0 1 265.5,381.5137 " fill="none" style="stroke:#000000;stroke-width:1.5;"/><line style="stroke:#000000;stroke-width:1.5;" x1="263" x2="338.2275" y1="406.1348" y2="406.1348"/><text fill="#000000" font-family="sans-serif" font-size="14" font-weight="bold" lengthAdjust="spacing" textLength="62.2275" x="267" y="398.6211">snapshot</text></g><!--cluster device_management--><g id="cluster_device_management"><path d="M459.5,381.5137 L598.2305,381.5137 A3.75,3.75 0 0 1 600.7305,384.0137 L607.7305,406.1348 L862.5,406.1348 A2.5,2.5 0 0 1 865,408.6348 L865,690.5137 A2.5,2.5 0 0 1 862.5,693.0137 L459.5,693.0137 A2.5,2.5 0 0 1 457,690.5137 L457,384.0137 A2.5,2.5 0 0 1 459.5,381.5137 " fill="none" style="stroke:#000000;stroke-width:1.5;"/><line style="stroke:#000000;stroke-width:1.5;" x1="457" x2="607.7305" y1="406.1348" y2="406.1348"/><text fill="#000000" font-family="sans-serif" font-size="14" font-weight="bold" lengthAdjust="spacing" textLength="137.7305" x="461" y="398.6211">device_management</text></g><!--cluster springframework--><g id="cluster_springframework"><path d="M1233.5,51.0137 L1348.0859,51.0137 A3.75,3.75 0 0 1 1350.5859,53.5137 L1357.5859,75.6348 L1454.5,75.6348 A2.5,2.5 0 0 1 1457,78.1348 L1457,218.5137 A2.5,2.5 0 0 1 1454.5,221.0137 L1233.5,221.0137 A2.5,2.5 0 0 1 1231,218.5137 L1231,53.5137 A2.5,2.5 0 0 1 1233.5,51.0137 " fill="none" style="stroke:#000000;stroke-width:1.5;"/><line style="stroke:#000000;stroke-width:1.5;" x1="1231" x2="1357.5859" y1="75.6348" y2="75.6348"/><text fill="#000000" font-family="sans-serif" font-size="14" font-weight="bold" lengthAdjust="spacing" textLength="113.5859" x="1235" y="68.1211">springframework</text></g><!--cluster boot--><g id="cluster_boot"><path d="M1257.5,96.0137 L1288.8174,96.0137 A3.75,3.75 0 0 1 1291.3174,98.5137 L1298.3174,120.6348 L1430.5,120.6348 A2.5,2.5 0 0 1 1433,123.1348 L1433,194.5137 A2.5,2.5 0 0 1 1430.5,197.0137 L1257.5,197.0137 A2.5,2.5 0 0 1 1255,194.5137 L1255,98.5137 A2.5,2.5 0 0 1 1257.5,96.0137 " fill="none" style="stroke:#000000;stroke-width:1.5;"/><line style="stroke:#000000;stroke-width:1.5;" x1="1255" x2="1298.3174" y1="120.6348" y2="120.6348"/><text fill="#000000" font-family="sans-serif" font-size="14" font-weight="bold" lengthAdjust="spacing" textLength="30.3174" x="1259" y="113.1211">boot</text></g><!--class OscdSpringApplication--><g id="elem_OscdSpringApplication"><rect codeLine="27" fill="#F1F1F1" height="48" id="OscdSpringApplication" rx="2.5" ry="2.5" style="stroke:#181818;stroke-width:0.5;" width="173.6338" x="70" y="418.5137"/><ellipse cx="85" cy="434.5137" fill="#ADD1B2" rx="11" ry="11" style="stroke:#181818;stroke-width:1.0;"/><path d="M84.3438,440.373 Q82.3594,440.373 81.1875,438.9043 Q80.0313,437.4199 80.0313,434.3418 Q80.0313,431.7324 81.25,429.9824 Q82.4844,428.2324 84.6094,428.2324 Q85.1094,428.2324 85.6406,428.373 Q86.0781,428.5605 86.3438,428.5605 Q86.5625,428.5605 86.6563,428.5137 Q86.7656,428.4668 87.2188,427.873 L87.9844,431.6074 L87.0938,431.873 Q86.6406,430.4199 86.0313,429.8262 Q85.4375,429.2168 84.4844,429.2168 Q83.2656,429.2168 82.5469,430.6543 Q81.8281,432.0762 81.8281,434.2637 Q81.8281,436.6699 82.4375,437.9668 Q83.0625,439.248 84.4219,439.248 Q85.375,439.248 86.0625,438.5605 Q86.75,437.8574 87.0781,436.3574 L87.9844,436.7637 Q87.5781,438.4668 86.6094,439.4199 Q85.6563,440.373 84.3438,440.373 Z " fill="#000000"/><text fill="#000000" font-family="sans-serif" font-size="14" lengthAdjust="spacing" textLength="141.6338" x="99" y="440.3105">OscdSpringApplication</text><line style="stroke:#181818;stroke-width:0.5;" x1="71" x2="242.6338" y1="450.5137" y2="450.5137"/><line style="stroke:#181818;stroke-width:0.5;" x1="71" x2="242.6338" y1="458.5137" y2="458.5137"/></g><!--class PCB--><g id="elem_PCB"><rect codeLine="1" fill="#F1F1F1" height="48" id="PCB" rx="2.5" ry="2.5" style="stroke:#181818;stroke-width:0.5;" width="60.7861" x="2528.5" y="418.5137"/><ellipse cx="2543.5" cy="434.5137" fill="#ADD1B2" rx="11" ry="11" style="stroke:#181818;stroke-width:1.0;"/><path d="M2542.8438,440.373 Q2540.8594,440.373 2539.6875,438.9043 Q2538.5313,437.4199 2538.5313,434.3418 Q2538.5313,431.7324 2539.75,429.9824 Q2540.9844,428.2324 2543.1094,428.2324 Q2543.6094,428.2324 2544.1406,428.373 Q2544.5781,428.5605 2544.8438,428.5605 Q2545.0625,428.5605 2545.1563,428.5137 Q2545.2656,428.4668 2545.7188,427.873 L2546.4844,431.6074 L2545.5938,431.873 Q2545.1406,430.4199 2544.5313,429.8262 Q2543.9375,429.2168 2542.9844,429.2168 Q2541.7656,429.2168 2541.0469,430.6543 Q2540.3281,432.0762 2540.3281,434.2637 Q2540.3281,436.6699 2540.9375,437.9668 Q2541.5625,439.248 2542.9219,439.248 Q2543.875,439.248 2544.5625,438.5605 Q2545.25,437.8574 2545.5781,436.3574 L2546.4844,436.7637 Q2546.0781,438.4668 2545.1094,439.4199 Q2544.1563,440.373 2542.8438,440.373 Z " fill="#000000"/><text fill="#000000" font-family="sans-serif" font-size="14" lengthAdjust="spacing" textLength="28.7861" x="2557.5" y="440.3105">PCB</text><line style="stroke:#181818;stroke-width:0.5;" x1="2529.5" x2="2588.2861" y1="450.5137" y2="450.5137"/><line style="stroke:#181818;stroke-width:0.5;" x1="2529.5" x2="2588.2861" y1="458.5137" y2="458.5137"/></g><!--class ProcessState--><g id="elem_ProcessState"><rect codeLine="29" fill="#F1F1F1" height="141.1055" id="ProcessState" rx="2.5" ry="2.5" style="stroke:#181818;stroke-width:0.5;" width="117" x="2624.5" y="372.0137"/><ellipse cx="2640.2822" cy="388.0137" fill="#EB937F" rx="11" ry="11" style="stroke:#181818;stroke-width:1.0;"/><path d="M2636.8135,382.7949 L2636.8135,381.8574 L2643.7822,381.8574 L2644.6416,384.5449 L2643.8604,384.8418 Q2643.251,383.6855 2642.7041,383.248 Q2642.1729,382.7949 2641.5322,382.7949 L2639.6729,382.7949 Q2639.501,382.7949 2639.4229,382.8574 Q2639.3447,382.9199 2639.3447,383.0605 L2639.3447,386.9043 L2641.001,386.9043 Q2641.5479,386.9043 2641.7666,386.6543 Q2642.001,386.4043 2642.001,385.8418 L2642.001,385.1855 L2642.9229,385.1855 L2642.9229,389.623 L2642.001,389.623 L2642.001,389.0918 Q2642.001,388.4668 2641.7666,388.1543 Q2641.5322,387.8418 2641.001,387.8418 L2639.3447,387.8418 L2639.3447,392.5449 Q2639.3447,392.6855 2639.4229,392.748 Q2639.501,392.8105 2639.6729,392.8105 L2641.3916,392.8105 Q2642.2979,392.8105 2642.9229,392.3105 Q2643.5635,391.7949 2644.0322,390.4199 L2644.8447,390.7324 L2643.9854,393.748 L2636.751,393.748 L2636.751,392.8105 L2637.4072,392.8105 Q2637.6416,392.8105 2637.6885,392.7637 Q2637.751,392.7012 2637.751,392.5449 L2637.751,383.0605 Q2637.751,382.9043 2637.6885,382.8574 Q2637.6416,382.7949 2637.4072,382.7949 L2636.8135,382.7949 Z " fill="#000000"/><text fill="#000000" font-family="sans-serif" font-size="14" lengthAdjust="spacing" textLength="83.2617" x="2654.4561" y="393.8105">ProcessState</text><line style="stroke:#181818;stroke-width:0.5;" x1="2625.5" x2="2740.5" y1="404.0137" y2="404.0137"/><ellipse cx="2635.5" cy="418.8242" fill="none" rx="3" ry="3" style="stroke:#038048;stroke-width:1.0;"/><text fill="#000000" font-family="sans-serif" font-size="14" lengthAdjust="spacing" textLength="32.6621" x="2644.5" y="423.1211">NEW</text><ellipse cx="2635.5" cy="437.4453" fill="none" rx="3" ry="3" style="stroke:#038048;stroke-width:1.0;"/><text fill="#000000" font-family="sans-serif" font-size="14" lengthAdjust="spacing" textLength="48.2344" x="2644.5" y="441.7422">READY</text><ellipse cx="2635.5" cy="456.0664" fill="none" rx="3" ry="3" style="stroke:#038048;stroke-width:1.0;"/><text fill="#000000" font-family="sans-serif" font-size="14" lengthAdjust="spacing" textLength="65.3311" x="2644.5" y="460.3633">RUNNING</text><ellipse cx="2635.5" cy="474.6875" fill="none" rx="3" ry="3" style="stroke:#038048;stroke-width:1.0;"/><text fill="#000000" font-family="sans-serif" font-size="14" lengthAdjust="spacing" textLength="59.8828" x="2644.5" y="478.9844">WAITING</text><ellipse cx="2635.5" cy="493.3086" fill="none" rx="3" ry="3" style="stroke:#038048;stroke-width:1.0;"/><text fill="#000000" font-family="sans-serif" font-size="14" lengthAdjust="spacing" textLength="91" x="2644.5" y="497.6055">TERMINATED</text><line style="stroke:#181818;stroke-width:0.5;" x1="2625.5" x2="2740.5" y1="505.1191" y2="505.1191"/></g><!--class CPU--><g id="elem_CPU"><rect codeLine="63" fill="#F1F1F1" height="48" id="CPU" rx="2.5" ry="2.5" style="stroke:#181818;stroke-width:0.5;" width="61.5586" x="2305" y="629.0137"/><ellipse cx="2320" cy="645.0137" fill="#ADD1B2" rx="11" ry="11" style="stroke:#181818;stroke-width:1.0;"/><path d="M2319.3438,650.873 Q2317.3594,650.873 2316.1875,649.4043 Q2315.0313,647.9199 2315.0313,644.8418 Q2315.0313,642.2324 2316.25,640.4824 Q2317.4844,638.7324 2319.6094,638.7324 Q2320.1094,638.7324 2320.6406,638.873 Q2321.0781,639.0605 2321.3438,639.0605 Q2321.5625,639.0605 2321.6563,639.0137 Q2321.7656,638.9668 2322.2188,638.373 L2322.9844,642.1074 L2322.0938,642.373 Q2321.6406,640.9199 2321.0313,640.3262 Q2320.4375,639.7168 2319.4844,639.7168 Q2318.2656,639.7168 2317.5469,641.1543 Q2316.8281,642.5762 2316.8281,644.7637 Q2316.8281,647.1699 2317.4375,648.4668 Q2318.0625,649.748 2319.4219,649.748 Q2320.375,649.748 2321.0625,649.0605 Q2321.75,648.3574 2322.0781,646.8574 L2322.9844,647.2637 Q2322.5781,648.9668 2321.6094,649.9199 Q2320.6563,650.873 2319.3438,650.873 Z " fill="#000000"/><text fill="#000000" font-family="sans-serif" font-size="14" lengthAdjust="spacing" textLength="29.5586" x="2334" y="650.8105">CPU</text><line style="stroke:#181818;stroke-width:0.5;" x1="2306" x2="2365.5586" y1="661.0137" y2="661.0137"/><line style="stroke:#181818;stroke-width:0.5;" x1="2306" x2="2365.5586" y1="669.0137" y2="669.0137"/></g><!--class Scheduler--><g id="elem_Scheduler"><rect codeLine="67" fill="#F1F1F1" height="48" id="Scheduler" rx="2.5" ry="2.5" style="stroke:#181818;stroke-width:0.5;" width="95.041" x="2402.5" y="629.0137"/><ellipse cx="2417.5" cy="645.0137" fill="#ADD1B2" rx="11" ry="11" style="stroke:#181818;stroke-width:1.0;"/><path d="M2416.8438,650.873 Q2414.8594,650.873 2413.6875,649.4043 Q2412.5313,647.9199 2412.5313,644.8418 Q2412.5313,642.2324 2413.75,640.4824 Q2414.9844,638.7324 2417.1094,638.7324 Q2417.6094,638.7324 2418.1406,638.873 Q2418.5781,639.0605 2418.8438,639.0605 Q2419.0625,639.0605 2419.1563,639.0137 Q2419.2656,638.9668 2419.7188,638.373 L2420.4844,642.1074 L2419.5938,642.373 Q2419.1406,640.9199 2418.5313,640.3262 Q2417.9375,639.7168 2416.9844,639.7168 Q2415.7656,639.7168 2415.0469,641.1543 Q2414.3281,642.5762 2414.3281,644.7637 Q2414.3281,647.1699 2414.9375,648.4668 Q2415.5625,649.748 2416.9219,649.748 Q2417.875,649.748 2418.5625,649.0605 Q2419.25,648.3574 2419.5781,646.8574 L2420.4844,647.2637 Q2420.0781,648.9668 2419.1094,649.9199 Q2418.1563,650.873 2416.8438,650.873 Z " fill="#000000"/><text fill="#000000" font-family="sans-serif" font-size="14" lengthAdjust="spacing" textLength="63.041" x="2431.5" y="650.8105">Scheduler</text><line style="stroke:#181818;stroke-width:0.5;" x1="2403.5" x2="2496.541" y1="661.0137" y2="661.0137"/><line style="stroke:#181818;stroke-width:0.5;" x1="2403.5" x2="2496.541" y1="669.0137" y2="669.0137"/></g><!--class SchedulingPolicy--><g id="elem_SchedulingPolicy"><rect codeLine="69" fill="#F1F1F1" height="159.7266" id="SchedulingPolicy" rx="2.5" ry="2.5" style="stroke:#181818;stroke-width:0.5;" width="170.71" x="2532.5" y="573.0137"/><ellipse cx="2561.9404" cy="589.0137" fill="#EB937F" rx="11" ry="11" style="stroke:#181818;stroke-width:1.0;"/><path d="M2558.4717,583.7949 L2558.4717,582.8574 L2565.4404,582.8574 L2566.2998,585.5449 L2565.5186,585.8418 Q2564.9092,584.6855 2564.3623,584.248 Q2563.8311,583.7949 2563.1904,583.7949 L2561.3311,583.7949 Q2561.1592,583.7949 2561.0811,583.8574 Q2561.0029,583.9199 2561.0029,584.0605 L2561.0029,587.9043 L2562.6592,587.9043 Q2563.2061,587.9043 2563.4248,587.6543 Q2563.6592,587.4043 2563.6592,586.8418 L2563.6592,586.1855 L2564.5811,586.1855 L2564.5811,590.623 L2563.6592,590.623 L2563.6592,590.0918 Q2563.6592,589.4668 2563.4248,589.1543 Q2563.1904,588.8418 2562.6592,588.8418 L2561.0029,588.8418 L2561.0029,593.5449 Q2561.0029,593.6855 2561.0811,593.748 Q2561.1592,593.8105 2561.3311,593.8105 L2563.0498,593.8105 Q2563.9561,593.8105 2564.5811,593.3105 Q2565.2217,592.7949 2565.6904,591.4199 L2566.5029,591.7324 L2565.6436,594.748 L2558.4092,594.748 L2558.4092,593.8105 L2559.0654,593.8105 Q2559.2998,593.8105 2559.3467,593.7637 Q2559.4092,593.7012 2559.4092,593.5449 L2559.4092,584.0605 Q2559.4092,583.9043 2559.3467,583.8574 Q2559.2998,583.7949 2559.0654,583.7949 L2558.4717,583.7949 Z " fill="#000000"/><text fill="#000000" font-family="sans-serif" font-size="14" lengthAdjust="spacing" textLength="106.6201" x="2579.1494" y="594.8105">SchedulingPolicy</text><line style="stroke:#181818;stroke-width:0.5;" x1="2533.5" x2="2702.21" y1="605.0137" y2="605.0137"/><ellipse cx="2543.5" cy="619.8242" fill="none" rx="3" ry="3" style="stroke:#038048;stroke-width:1.0;"/><text fill="#000000" font-family="sans-serif" font-size="14" lengthAdjust="spacing" textLength="36.5518" x="2552.5" y="624.1211">FCFS</text><ellipse cx="2543.5" cy="638.4453" fill="none" rx="3" ry="3" style="stroke:#038048;stroke-width:1.0;"/><text fill="#000000" font-family="sans-serif" font-size="14" lengthAdjust="spacing" textLength="24.8896" x="2552.5" y="642.7422">SJF</text><ellipse cx="2543.5" cy="657.0664" fill="none" rx="3" ry="3" style="stroke:#038048;stroke-width:1.0;"/><text fill="#000000" font-family="sans-serif" font-size="14" lengthAdjust="spacing" textLength="20.2207" x="2552.5" y="661.3633">RR</text><ellipse cx="2543.5" cy="675.6875" fill="none" rx="3" ry="3" style="stroke:#038048;stroke-width:1.0;"/><text fill="#000000" font-family="sans-serif" font-size="14" lengthAdjust="spacing" textLength="66.1172" x="2552.5" y="679.9844">PRIORITY</text><ellipse cx="2543.5" cy="694.3086" fill="none" rx="3" ry="3" style="stroke:#038048;stroke-width:1.0;"/><text fill="#000000" font-family="sans-serif" font-size="14" lengthAdjust="spacing" textLength="38.8896" x="2552.5" y="698.6055">MLFQ</text><ellipse cx="2543.5" cy="712.9297" fill="none" rx="3" ry="3" style="stroke:#038048;stroke-width:1.0;"/><text fill="#000000" font-family="sans-serif" font-size="14" lengthAdjust="spacing" textLength="144.71" x="2552.5" y="717.2266">PRIORITY_Preemptive</text><line style="stroke:#181818;stroke-width:0.5;" x1="2533.5" x2="2702.21" y1="724.7402" y2="724.7402"/></g><!--class PIDBitmap--><g id="elem_PIDBitmap"><rect codeLine="88" fill="#F1F1F1" height="48" id="PIDBitmap" rx="2.5" ry="2.5" style="stroke:#181818;stroke-width:0.5;" width="98.9102" x="2738.5" y="629.0137"/><ellipse cx="2753.5" cy="645.0137" fill="#ADD1B2" rx="11" ry="11" style="stroke:#181818;stroke-width:1.0;"/><path d="M2752.8438,650.873 Q2750.8594,650.873 2749.6875,649.4043 Q2748.5313,647.9199 2748.5313,644.8418 Q2748.5313,642.2324 2749.75,640.4824 Q2750.9844,638.7324 2753.1094,638.7324 Q2753.6094,638.7324 2754.1406,638.873 Q2754.5781,639.0605 2754.8438,639.0605 Q2755.0625,639.0605 2755.1563,639.0137 Q2755.2656,638.9668 2755.7188,638.373 L2756.4844,642.1074 L2755.5938,642.373 Q2755.1406,640.9199 2754.5313,640.3262 Q2753.9375,639.7168 2752.9844,639.7168 Q2751.7656,639.7168 2751.0469,641.1543 Q2750.3281,642.5762 2750.3281,644.7637 Q2750.3281,647.1699 2750.9375,648.4668 Q2751.5625,649.748 2752.9219,649.748 Q2753.875,649.748 2754.5625,649.0605 Q2755.25,648.3574 2755.5781,646.8574 L2756.4844,647.2637 Q2756.0781,648.9668 2755.1094,649.9199 Q2754.1563,650.873 2752.8438,650.873 Z " fill="#000000"/><text fill="#000000" font-family="sans-serif" font-size="14" lengthAdjust="spacing" textLength="66.9102" x="2767.5" y="650.8105">PIDBitmap</text><line style="stroke:#181818;stroke-width:0.5;" x1="2739.5" x2="2836.4102" y1="661.0137" y2="661.0137"/><line style="stroke:#181818;stroke-width:0.5;" x1="2739.5" x2="2836.4102" y1="669.0137" y2="669.0137"/></g><!--class Thread--><g id="elem_Thread"><rect fill="#F1F1F1" height="48" id="Thread" rx="2.5" ry="2.5" style="stroke:#181818;stroke-width:0.5;" width="76.3584" x="2358" y="418.5137"/><ellipse cx="2373" cy="434.5137" fill="#ADD1B2" rx="11" ry="11" style="stroke:#181818;stroke-width:1.0;"/><path d="M2372.3438,440.373 Q2370.3594,440.373 2369.1875,438.9043 Q2368.0313,437.4199 2368.0313,434.3418 Q2368.0313,431.7324 2369.25,429.9824 Q2370.4844,428.2324 2372.6094,428.2324 Q2373.1094,428.2324 2373.6406,428.373 Q2374.0781,428.5605 2374.3438,428.5605 Q2374.5625,428.5605 2374.6563,428.5137 Q2374.7656,428.4668 2375.2188,427.873 L2375.9844,431.6074 L2375.0938,431.873 Q2374.6406,430.4199 2374.0313,429.8262 Q2373.4375,429.2168 2372.4844,429.2168 Q2371.2656,429.2168 2370.5469,430.6543 Q2369.8281,432.0762 2369.8281,434.2637 Q2369.8281,436.6699 2370.4375,437.9668 Q2371.0625,439.248 2372.4219,439.248 Q2373.375,439.248 2374.0625,438.5605 Q2374.75,437.8574 2375.0781,436.3574 L2375.9844,436.7637 Q2375.5781,438.4668 2374.6094,439.4199 Q2373.6563,440.373 2372.3438,440.373 Z " fill="#000000"/><text fill="#000000" font-family="sans-serif" font-size="14" lengthAdjust="spacing" textLength="44.3584" x="2387" y="440.3105">Thread</text><line style="stroke:#181818;stroke-width:0.5;" x1="2359" x2="2433.3584" y1="450.5137" y2="450.5137"/><line style="stroke:#181818;stroke-width:0.5;" x1="2359" x2="2433.3584" y1="458.5137" y2="458.5137"/></g><!--class InterruptHandler--><g id="elem_InterruptHandler"><rect codeLine="3" fill="#F1F1F1" height="48" id="InterruptHandler" rx="2.5" ry="2.5" style="stroke:#181818;stroke-width:0.5;" width="133.165" x="2114.5" y="418.5137"/><ellipse cx="2129.5" cy="434.5137" fill="#ADD1B2" rx="11" ry="11" style="stroke:#181818;stroke-width:1.0;"/><path d="M2128.8438,440.373 Q2126.8594,440.373 2125.6875,438.9043 Q2124.5313,437.4199 2124.5313,434.3418 Q2124.5313,431.7324 2125.75,429.9824 Q2126.9844,428.2324 2129.1094,428.2324 Q2129.6094,428.2324 2130.1406,428.373 Q2130.5781,428.5605 2130.8438,428.5605 Q2131.0625,428.5605 2131.1563,428.5137 Q2131.2656,428.4668 2131.7188,427.873 L2132.4844,431.6074 L2131.5938,431.873 Q2131.1406,430.4199 2130.5313,429.8262 Q2129.9375,429.2168 2128.9844,429.2168 Q2127.7656,429.2168 2127.0469,430.6543 Q2126.3281,432.0762 2126.3281,434.2637 Q2126.3281,436.6699 2126.9375,437.9668 Q2127.5625,439.248 2128.9219,439.248 Q2129.875,439.248 2130.5625,438.5605 Q2131.25,437.8574 2131.5781,436.3574 L2132.4844,436.7637 Q2132.0781,438.4668 2131.1094,439.4199 Q2130.1563,440.373 2128.8438,440.373 Z " fill="#000000"/><text fill="#000000" font-family="sans-serif" font-size="14" lengthAdjust="spacing" textLength="101.165" x="2143.5" y="440.3105">InterruptHandler</text><line style="stroke:#181818;stroke-width:0.5;" x1="2115.5" x2="2246.665" y1="450.5137" y2="450.5137"/><line style="stroke:#181818;stroke-width:0.5;" x1="2115.5" x2="2246.665" y1="458.5137" y2="458.5137"/></g><!--class LogEmitterService--><g id="elem_LogEmitterService"><rect codeLine="5" fill="#F1F1F1" height="48" id="LogEmitterService" rx="2.5" ry="2.5" style="stroke:#181818;stroke-width:0.5;" width="146.3789" x="1912" y="418.5137"/><ellipse cx="1927" cy="434.5137" fill="#ADD1B2" rx="11" ry="11" style="stroke:#181818;stroke-width:1.0;"/><path d="M1926.3438,440.373 Q1924.3594,440.373 1923.1875,438.9043 Q1922.0313,437.4199 1922.0313,434.3418 Q1922.0313,431.7324 1923.25,429.9824 Q1924.4844,428.2324 1926.6094,428.2324 Q1927.1094,428.2324 1927.6406,428.373 Q1928.0781,428.5605 1928.3438,428.5605 Q1928.5625,428.5605 1928.6563,428.5137 Q1928.7656,428.4668 1929.2188,427.873 L1929.9844,431.6074 L1929.0938,431.873 Q1928.6406,430.4199 1928.0313,429.8262 Q1927.4375,429.2168 1926.4844,429.2168 Q1925.2656,429.2168 1924.5469,430.6543 Q1923.8281,432.0762 1923.8281,434.2637 Q1923.8281,436.6699 1924.4375,437.9668 Q1925.0625,439.248 1926.4219,439.248 Q1927.375,439.248 1928.0625,438.5605 Q1928.75,437.8574 1929.0781,436.3574 L1929.9844,436.7637 Q1929.5781,438.4668 1928.6094,439.4199 Q1927.6563,440.373 1926.3438,440.373 Z " fill="#000000"/><text fill="#000000" font-family="sans-serif" font-size="14" lengthAdjust="spacing" textLength="114.3789" x="1941" y="440.3105">LogEmitterService</text><line style="stroke:#181818;stroke-width:0.5;" x1="1913" x2="2057.3789" y1="450.5137" y2="450.5137"/><line style="stroke:#181818;stroke-width:0.5;" x1="1913" x2="2057.3789" y1="458.5137" y2="458.5137"/></g><!--class SnapshotEmitterService--><g id="elem_SnapshotEmitterService"><rect codeLine="82" fill="#F1F1F1" height="48" id="SnapshotEmitterService" rx="2.5" ry="2.5" style="stroke:#181818;stroke-width:0.5;" width="182.1787" x="1695" y="418.5137"/><ellipse cx="1710" cy="434.5137" fill="#ADD1B2" rx="11" ry="11" style="stroke:#181818;stroke-width:1.0;"/><path d="M1709.3438,440.373 Q1707.3594,440.373 1706.1875,438.9043 Q1705.0313,437.4199 1705.0313,434.3418 Q1705.0313,431.7324 1706.25,429.9824 Q1707.4844,428.2324 1709.6094,428.2324 Q1710.1094,428.2324 1710.6406,428.373 Q1711.0781,428.5605 1711.3438,428.5605 Q1711.5625,428.5605 1711.6563,428.5137 Q1711.7656,428.4668 1712.2188,427.873 L1712.9844,431.6074 L1712.0938,431.873 Q1711.6406,430.4199 1711.0313,429.8262 Q1710.4375,429.2168 1709.4844,429.2168 Q1708.2656,429.2168 1707.5469,430.6543 Q1706.8281,432.0762 1706.8281,434.2637 Q1706.8281,436.6699 1707.4375,437.9668 Q1708.0625,439.248 1709.4219,439.248 Q1710.375,439.248 1711.0625,438.5605 Q1711.75,437.8574 1712.0781,436.3574 L1712.9844,436.7637 Q1712.5781,438.4668 1711.6094,439.4199 Q1710.6563,440.373 1709.3438,440.373 Z " fill="#000000"/><text fill="#000000" font-family="sans-serif" font-size="14" lengthAdjust="spacing" textLength="150.1787" x="1724" y="440.3105">SnapshotEmitterService</text><line style="stroke:#181818;stroke-width:0.5;" x1="1696" x2="1876.1787" y1="450.5137" y2="450.5137"/><line style="stroke:#181818;stroke-width:0.5;" x1="1696" x2="1876.1787" y1="458.5137" y2="458.5137"/></g><!--class StartupInitializer--><g id="elem_StartupInitializer"><rect codeLine="7" fill="#F1F1F1" height="48" id="StartupInitializer" rx="2.5" ry="2.5" style="stroke:#181818;stroke-width:0.5;" width="132.3789" x="1278" y="418.5137"/><ellipse cx="1293" cy="434.5137" fill="#ADD1B2" rx="11" ry="11" style="stroke:#181818;stroke-width:1.0;"/><path d="M1292.3438,440.373 Q1290.3594,440.373 1289.1875,438.9043 Q1288.0313,437.4199 1288.0313,434.3418 Q1288.0313,431.7324 1289.25,429.9824 Q1290.4844,428.2324 1292.6094,428.2324 Q1293.1094,428.2324 1293.6406,428.373 Q1294.0781,428.5605 1294.3438,428.5605 Q1294.5625,428.5605 1294.6563,428.5137 Q1294.7656,428.4668 1295.2188,427.873 L1295.9844,431.6074 L1295.0938,431.873 Q1294.6406,430.4199 1294.0313,429.8262 Q1293.4375,429.2168 1292.4844,429.2168 Q1291.2656,429.2168 1290.5469,430.6543 Q1289.8281,432.0762 1289.8281,434.2637 Q1289.8281,436.6699 1290.4375,437.9668 Q1291.0625,439.248 1292.4219,439.248 Q1293.375,439.248 1294.0625,438.5605 Q1294.75,437.8574 1295.0781,436.3574 L1295.9844,436.7637 Q1295.5781,438.4668 1294.6094,439.4199 Q1293.6563,440.373 1292.3438,440.373 Z " fill="#000000"/><text fill="#000000" font-family="sans-serif" font-size="14" lengthAdjust="spacing" textLength="100.3789" x="1307" y="440.3105">StartupInitializer</text><line style="stroke:#181818;stroke-width:0.5;" x1="1279" x2="1409.3789" y1="450.5137" y2="450.5137"/><line style="stroke:#181818;stroke-width:0.5;" x1="1279" x2="1409.3789" y1="458.5137" y2="458.5137"/></g><!--class Constants--><g id="elem_Constants"><rect codeLine="65" fill="#F1F1F1" height="48" id="Constants" rx="2.5" ry="2.5" style="stroke:#181818;stroke-width:0.5;" width="95.0342" x="1445.5" y="418.5137"/><ellipse cx="1460.5" cy="434.5137" fill="#ADD1B2" rx="11" ry="11" style="stroke:#181818;stroke-width:1.0;"/><path d="M1459.8438,440.373 Q1457.8594,440.373 1456.6875,438.9043 Q1455.5313,437.4199 1455.5313,434.3418 Q1455.5313,431.7324 1456.75,429.9824 Q1457.9844,428.2324 1460.1094,428.2324 Q1460.6094,428.2324 1461.1406,428.373 Q1461.5781,428.5605 1461.8438,428.5605 Q1462.0625,428.5605 1462.1563,428.5137 Q1462.2656,428.4668 1462.7188,427.873 L1463.4844,431.6074 L1462.5938,431.873 Q1462.1406,430.4199 1461.5313,429.8262 Q1460.9375,429.2168 1459.9844,429.2168 Q1458.7656,429.2168 1458.0469,430.6543 Q1457.3281,432.0762 1457.3281,434.2637 Q1457.3281,436.6699 1457.9375,437.9668 Q1458.5625,439.248 1459.9219,439.248 Q1460.875,439.248 1461.5625,438.5605 Q1462.25,437.8574 1462.5781,436.3574 L1463.4844,436.7637 Q1463.0781,438.4668 1462.1094,439.4199 Q1461.1563,440.373 1459.8438,440.373 Z " fill="#000000"/><text fill="#000000" font-family="sans-serif" font-size="14" lengthAdjust="spacing" textLength="63.0342" x="1474.5" y="440.3105">Constants</text><line style="stroke:#181818;stroke-width:0.5;" x1="1446.5" x2="1539.5342" y1="450.5137" y2="450.5137"/><line style="stroke:#181818;stroke-width:0.5;" x1="1446.5" x2="1539.5342" y1="458.5137" y2="458.5137"/></g><!--class Shell--><g id="elem_Shell"><rect codeLine="96" fill="#F1F1F1" height="48" id="Shell" rx="2.5" ry="2.5" style="stroke:#181818;stroke-width:0.5;" width="63.1309" x="1575.5" y="418.5137"/><ellipse cx="1590.5" cy="434.5137" fill="#ADD1B2" rx="11" ry="11" style="stroke:#181818;stroke-width:1.0;"/><path d="M1589.8438,440.373 Q1587.8594,440.373 1586.6875,438.9043 Q1585.5313,437.4199 1585.5313,434.3418 Q1585.5313,431.7324 1586.75,429.9824 Q1587.9844,428.2324 1590.1094,428.2324 Q1590.6094,428.2324 1591.1406,428.373 Q1591.5781,428.5605 1591.8438,428.5605 Q1592.0625,428.5605 1592.1563,428.5137 Q1592.2656,428.4668 1592.7188,427.873 L1593.4844,431.6074 L1592.5938,431.873 Q1592.1406,430.4199 1591.5313,429.8262 Q1590.9375,429.2168 1589.9844,429.2168 Q1588.7656,429.2168 1588.0469,430.6543 Q1587.3281,432.0762 1587.3281,434.2637 Q1587.3281,436.6699 1587.9375,437.9668 Q1588.5625,439.248 1589.9219,439.248 Q1590.875,439.248 1591.5625,438.5605 Q1592.25,437.8574 1592.5781,436.3574 L1593.4844,436.7637 Q1593.0781,438.4668 1592.1094,439.4199 Q1591.1563,440.373 1589.8438,440.373 Z " fill="#000000"/><text fill="#000000" font-family="sans-serif" font-size="14" lengthAdjust="spacing" textLength="31.1309" x="1604.5" y="440.3105">Shell</text><line style="stroke:#181818;stroke-width:0.5;" x1="1576.5" x2="1637.6309" y1="450.5137" y2="450.5137"/><line style="stroke:#181818;stroke-width:0.5;" x1="1576.5" x2="1637.6309" y1="458.5137" y2="458.5137"/></g><!--class Library--><g id="elem_Library"><rect codeLine="98" fill="#F1F1F1" height="48" id="Library" rx="2.5" ry="2.5" style="stroke:#181818;stroke-width:0.5;" width="74.793" x="1455.5" y="629.0137"/><ellipse cx="1470.5" cy="645.0137" fill="#ADD1B2" rx="11" ry="11" style="stroke:#181818;stroke-width:1.0;"/><path d="M1469.8438,650.873 Q1467.8594,650.873 1466.6875,649.4043 Q1465.5313,647.9199 1465.5313,644.8418 Q1465.5313,642.2324 1466.75,640.4824 Q1467.9844,638.7324 1470.1094,638.7324 Q1470.6094,638.7324 1471.1406,638.873 Q1471.5781,639.0605 1471.8438,639.0605 Q1472.0625,639.0605 1472.1563,639.0137 Q1472.2656,638.9668 1472.7188,638.373 L1473.4844,642.1074 L1472.5938,642.373 Q1472.1406,640.9199 1471.5313,640.3262 Q1470.9375,639.7168 1469.9844,639.7168 Q1468.7656,639.7168 1468.0469,641.1543 Q1467.3281,642.5762 1467.3281,644.7637 Q1467.3281,647.1699 1467.9375,648.4668 Q1468.5625,649.748 1469.9219,649.748 Q1470.875,649.748 1471.5625,649.0605 Q1472.25,648.3574 1472.5781,646.8574 L1473.4844,647.2637 Q1473.0781,648.9668 1472.1094,649.9199 Q1471.1563,650.873 1469.8438,650.873 Z " fill="#000000"/><text fill="#000000" font-family="sans-serif" font-size="14" lengthAdjust="spacing" textLength="42.793" x="1484.5" y="650.8105">Library</text><line style="stroke:#181818;stroke-width:0.5;" x1="1456.5" x2="1529.293" y1="661.0137" y2="661.0137"/><line style="stroke:#181818;stroke-width:0.5;" x1="1456.5" x2="1529.293" y1="669.0137" y2="669.0137"/></g><!--class ShellSseController--><g id="elem_ShellSseController"><rect codeLine="9" fill="#F1F1F1" height="48" id="ShellSseController" rx="2.5" ry="2.5" style="stroke:#181818;stroke-width:0.5;" width="147.9443" x="910" y="418.5137"/><ellipse cx="925" cy="434.5137" fill="#ADD1B2" rx="11" ry="11" style="stroke:#181818;stroke-width:1.0;"/><path d="M924.3438,440.373 Q922.3594,440.373 921.1875,438.9043 Q920.0313,437.4199 920.0313,434.3418 Q920.0313,431.7324 921.25,429.9824 Q922.4844,428.2324 924.6094,428.2324 Q925.1094,428.2324 925.6406,428.373 Q926.0781,428.5605 926.3438,428.5605 Q926.5625,428.5605 926.6563,428.5137 Q926.7656,428.4668 927.2188,427.873 L927.9844,431.6074 L927.0938,431.873 Q926.6406,430.4199 926.0313,429.8262 Q925.4375,429.2168 924.4844,429.2168 Q923.2656,429.2168 922.5469,430.6543 Q921.8281,432.0762 921.8281,434.2637 Q921.8281,436.6699 922.4375,437.9668 Q923.0625,439.248 924.4219,439.248 Q925.375,439.248 926.0625,438.5605 Q926.75,437.8574 927.0781,436.3574 L927.9844,436.7637 Q927.5781,438.4668 926.6094,439.4199 Q925.6563,440.373 924.3438,440.373 Z " fill="#000000"/><text fill="#000000" font-family="sans-serif" font-size="14" lengthAdjust="spacing" textLength="115.9443" x="939" y="440.3105">ShellSseController</text><line style="stroke:#181818;stroke-width:0.5;" x1="911" x2="1056.9443" y1="450.5137" y2="450.5137"/><line style="stroke:#181818;stroke-width:0.5;" x1="911" x2="1056.9443" y1="458.5137" y2="458.5137"/></g><!--class ShellController--><g id="elem_ShellController"><rect codeLine="39" fill="#F1F1F1" height="48" id="ShellController" rx="2.5" ry="2.5" style="stroke:#181818;stroke-width:0.5;" width="123.8203" x="1093" y="418.5137"/><ellipse cx="1108" cy="434.5137" fill="#ADD1B2" rx="11" ry="11" style="stroke:#181818;stroke-width:1.0;"/><path d="M1107.3438,440.373 Q1105.3594,440.373 1104.1875,438.9043 Q1103.0313,437.4199 1103.0313,434.3418 Q1103.0313,431.7324 1104.25,429.9824 Q1105.4844,428.2324 1107.6094,428.2324 Q1108.1094,428.2324 1108.6406,428.373 Q1109.0781,428.5605 1109.3438,428.5605 Q1109.5625,428.5605 1109.6563,428.5137 Q1109.7656,428.4668 1110.2188,427.873 L1110.9844,431.6074 L1110.0938,431.873 Q1109.6406,430.4199 1109.0313,429.8262 Q1108.4375,429.2168 1107.4844,429.2168 Q1106.2656,429.2168 1105.5469,430.6543 Q1104.8281,432.0762 1104.8281,434.2637 Q1104.8281,436.6699 1105.4375,437.9668 Q1106.0625,439.248 1107.4219,439.248 Q1108.375,439.248 1109.0625,438.5605 Q1109.75,437.8574 1110.0781,436.3574 L1110.9844,436.7637 Q1110.5781,438.4668 1109.6094,439.4199 Q1108.6563,440.373 1107.3438,440.373 Z " fill="#000000"/><text fill="#000000" font-family="sans-serif" font-size="14" lengthAdjust="spacing" textLength="91.8203" x="1122" y="440.3105">ShellController</text><line style="stroke:#181818;stroke-width:0.5;" x1="1094" x2="1215.8203" y1="450.5137" y2="450.5137"/><line style="stroke:#181818;stroke-width:0.5;" x1="1094" x2="1215.8203" y1="458.5137" y2="458.5137"/></g><!--class ViSaveRequest--><g id="elem_ViSaveRequest"><rect codeLine="41" fill="#F1F1F1" height="48" id="ViSaveRequest" rx="2.5" ry="2.5" style="stroke:#181818;stroke-width:0.5;" width="128.5029" x="905.5" y="629.0137"/><ellipse cx="920.5" cy="645.0137" fill="#ADD1B2" rx="11" ry="11" style="stroke:#181818;stroke-width:1.0;"/><path d="M919.8438,650.873 Q917.8594,650.873 916.6875,649.4043 Q915.5313,647.9199 915.5313,644.8418 Q915.5313,642.2324 916.75,640.4824 Q917.9844,638.7324 920.1094,638.7324 Q920.6094,638.7324 921.1406,638.873 Q921.5781,639.0605 921.8438,639.0605 Q922.0625,639.0605 922.1563,639.0137 Q922.2656,638.9668 922.7188,638.373 L923.4844,642.1074 L922.5938,642.373 Q922.1406,640.9199 921.5313,640.3262 Q920.9375,639.7168 919.9844,639.7168 Q918.7656,639.7168 918.0469,641.1543 Q917.3281,642.5762 917.3281,644.7637 Q917.3281,647.1699 917.9375,648.4668 Q918.5625,649.748 919.9219,649.748 Q920.875,649.748 921.5625,649.0605 Q922.25,648.3574 922.5781,646.8574 L923.4844,647.2637 Q923.0781,648.9668 922.1094,649.9199 Q921.1563,650.873 919.8438,650.873 Z " fill="#000000"/><text fill="#000000" font-family="sans-serif" font-size="14" lengthAdjust="spacing" textLength="96.5029" x="934.5" y="650.8105">ViSaveRequest</text><line style="stroke:#181818;stroke-width:0.5;" x1="906.5" x2="1033.0029" y1="661.0137" y2="661.0137"/><line style="stroke:#181818;stroke-width:0.5;" x1="906.5" x2="1033.0029" y1="669.0137" y2="669.0137"/></g><!--class SnapshotController--><g id="elem_SnapshotController"><rect codeLine="78" fill="#F1F1F1" height="48" id="SnapshotController" rx="2.5" ry="2.5" style="stroke:#181818;stroke-width:0.5;" width="151.8477" x="1070" y="629.0137"/><ellipse cx="1085" cy="645.0137" fill="#ADD1B2" rx="11" ry="11" style="stroke:#181818;stroke-width:1.0;"/><path d="M1084.3438,650.873 Q1082.3594,650.873 1081.1875,649.4043 Q1080.0313,647.9199 1080.0313,644.8418 Q1080.0313,642.2324 1081.25,640.4824 Q1082.4844,638.7324 1084.6094,638.7324 Q1085.1094,638.7324 1085.6406,638.873 Q1086.0781,639.0605 1086.3438,639.0605 Q1086.5625,639.0605 1086.6563,639.0137 Q1086.7656,638.9668 1087.2188,638.373 L1087.9844,642.1074 L1087.0938,642.373 Q1086.6406,640.9199 1086.0313,640.3262 Q1085.4375,639.7168 1084.4844,639.7168 Q1083.2656,639.7168 1082.5469,641.1543 Q1081.8281,642.5762 1081.8281,644.7637 Q1081.8281,647.1699 1082.4375,648.4668 Q1083.0625,649.748 1084.4219,649.748 Q1085.375,649.748 1086.0625,649.0605 Q1086.75,648.3574 1087.0781,646.8574 L1087.9844,647.2637 Q1087.5781,648.9668 1086.6094,649.9199 Q1085.6563,650.873 1084.3438,650.873 Z " fill="#000000"/><text fill="#000000" font-family="sans-serif" font-size="14" lengthAdjust="spacing" textLength="119.8477" x="1099" y="650.8105">SnapshotController</text><line style="stroke:#181818;stroke-width:0.5;" x1="1071" x2="1220.8477" y1="661.0137" y2="661.0137"/><line style="stroke:#181818;stroke-width:0.5;" x1="1071" x2="1220.8477" y1="669.0137" y2="669.0137"/></g><!--class MMU--><g id="elem_MMU"><rect codeLine="11" fill="#F1F1F1" height="48" id="MMU" rx="2.5" ry="2.5" style="stroke:#181818;stroke-width:0.5;" width="65.4346" x="2266.5" y="810.0137"/><ellipse cx="2281.5" cy="826.0137" fill="#ADD1B2" rx="11" ry="11" style="stroke:#181818;stroke-width:1.0;"/><path d="M2280.8438,831.873 Q2278.8594,831.873 2277.6875,830.4043 Q2276.5313,828.9199 2276.5313,825.8418 Q2276.5313,823.2324 2277.75,821.4824 Q2278.9844,819.7324 2281.1094,819.7324 Q2281.6094,819.7324 2282.1406,819.873 Q2282.5781,820.0605 2282.8438,820.0605 Q2283.0625,820.0605 2283.1563,820.0137 Q2283.2656,819.9668 2283.7188,819.373 L2284.4844,823.1074 L2283.5938,823.373 Q2283.1406,821.9199 2282.5313,821.3262 Q2281.9375,820.7168 2280.9844,820.7168 Q2279.7656,820.7168 2279.0469,822.1543 Q2278.3281,823.5762 2278.3281,825.7637 Q2278.3281,828.1699 2278.9375,829.4668 Q2279.5625,830.748 2280.9219,830.748 Q2281.875,830.748 2282.5625,830.0605 Q2283.25,829.3574 2283.5781,827.8574 L2284.4844,828.2637 Q2284.0781,829.9668 2283.1094,830.9199 Q2282.1563,831.873 2280.8438,831.873 Z " fill="#000000"/><text fill="#000000" font-family="sans-serif" font-size="14" lengthAdjust="spacing" textLength="33.4346" x="2295.5" y="831.8105">MMU</text><line style="stroke:#181818;stroke-width:0.5;" x1="2267.5" x2="2330.9346" y1="842.0137" y2="842.0137"/><line style="stroke:#181818;stroke-width:0.5;" x1="2267.5" x2="2330.9346" y1="850.0137" y2="850.0137"/></g><!--class PTR--><g id="elem_PTR"><rect codeLine="13" fill="#F1F1F1" height="48" id="PTR" rx="2.5" ry="2.5" style="stroke:#181818;stroke-width:0.5;" width="60" x="2367" y="810.0137"/><ellipse cx="2382" cy="826.0137" fill="#ADD1B2" rx="11" ry="11" style="stroke:#181818;stroke-width:1.0;"/><path d="M2381.3438,831.873 Q2379.3594,831.873 2378.1875,830.4043 Q2377.0313,828.9199 2377.0313,825.8418 Q2377.0313,823.2324 2378.25,821.4824 Q2379.4844,819.7324 2381.6094,819.7324 Q2382.1094,819.7324 2382.6406,819.873 Q2383.0781,820.0605 2383.3438,820.0605 Q2383.5625,820.0605 2383.6563,820.0137 Q2383.7656,819.9668 2384.2188,819.373 L2384.9844,823.1074 L2384.0938,823.373 Q2383.6406,821.9199 2383.0313,821.3262 Q2382.4375,820.7168 2381.4844,820.7168 Q2380.2656,820.7168 2379.5469,822.1543 Q2378.8281,823.5762 2378.8281,825.7637 Q2378.8281,828.1699 2379.4375,829.4668 Q2380.0625,830.748 2381.4219,830.748 Q2382.375,830.748 2383.0625,830.0605 Q2383.75,829.3574 2384.0781,827.8574 L2384.9844,828.2637 Q2384.5781,829.9668 2383.6094,830.9199 Q2382.6563,831.873 2381.3438,831.873 Z " fill="#000000"/><text fill="#000000" font-family="sans-serif" font-size="14" lengthAdjust="spacing" textLength="28" x="2396" y="831.8105">PTR</text><line style="stroke:#181818;stroke-width:0.5;" x1="2368" x2="2426" y1="842.0137" y2="842.0137"/><line style="stroke:#181818;stroke-width:0.5;" x1="2368" x2="2426" y1="850.0137" y2="850.0137"/></g><!--class TLB--><g id="elem_TLB"><rect codeLine="15" fill="#F1F1F1" height="48" id="TLB" rx="2.5" ry="2.5" style="stroke:#181818;stroke-width:0.5;" width="57.6758" x="2462" y="810.0137"/><ellipse cx="2477" cy="826.0137" fill="#ADD1B2" rx="11" ry="11" style="stroke:#181818;stroke-width:1.0;"/><path d="M2476.3438,831.873 Q2474.3594,831.873 2473.1875,830.4043 Q2472.0313,828.9199 2472.0313,825.8418 Q2472.0313,823.2324 2473.25,821.4824 Q2474.4844,819.7324 2476.6094,819.7324 Q2477.1094,819.7324 2477.6406,819.873 Q2478.0781,820.0605 2478.3438,820.0605 Q2478.5625,820.0605 2478.6563,820.0137 Q2478.7656,819.9668 2479.2188,819.373 L2479.9844,823.1074 L2479.0938,823.373 Q2478.6406,821.9199 2478.0313,821.3262 Q2477.4375,820.7168 2476.4844,820.7168 Q2475.2656,820.7168 2474.5469,822.1543 Q2473.8281,823.5762 2473.8281,825.7637 Q2473.8281,828.1699 2474.4375,829.4668 Q2475.0625,830.748 2476.4219,830.748 Q2477.375,830.748 2478.0625,830.0605 Q2478.75,829.3574 2479.0781,827.8574 L2479.9844,828.2637 Q2479.5781,829.9668 2478.6094,830.9199 Q2477.6563,831.873 2476.3438,831.873 Z " fill="#000000"/><text fill="#000000" font-family="sans-serif" font-size="14" lengthAdjust="spacing" textLength="25.6758" x="2491" y="831.8105">TLB</text><line style="stroke:#181818;stroke-width:0.5;" x1="2463" x2="2518.6758" y1="842.0137" y2="842.0137"/><line style="stroke:#181818;stroke-width:0.5;" x1="2463" x2="2518.6758" y1="850.0137" y2="850.0137"/></g><!--class TLBEntry--><g id="elem_TLBEntry"><rect codeLine="17" fill="#F1F1F1" height="48" id="TLBEntry" rx="2.5" ry="2.5" style="stroke:#181818;stroke-width:0.5;" width="90.3516" x="2555" y="810.0137"/><ellipse cx="2570" cy="826.0137" fill="#ADD1B2" rx="11" ry="11" style="stroke:#181818;stroke-width:1.0;"/><path d="M2569.3438,831.873 Q2567.3594,831.873 2566.1875,830.4043 Q2565.0313,828.9199 2565.0313,825.8418 Q2565.0313,823.2324 2566.25,821.4824 Q2567.4844,819.7324 2569.6094,819.7324 Q2570.1094,819.7324 2570.6406,819.873 Q2571.0781,820.0605 2571.3438,820.0605 Q2571.5625,820.0605 2571.6563,820.0137 Q2571.7656,819.9668 2572.2188,819.373 L2572.9844,823.1074 L2572.0938,823.373 Q2571.6406,821.9199 2571.0313,821.3262 Q2570.4375,820.7168 2569.4844,820.7168 Q2568.2656,820.7168 2567.5469,822.1543 Q2566.8281,823.5762 2566.8281,825.7637 Q2566.8281,828.1699 2567.4375,829.4668 Q2568.0625,830.748 2569.4219,830.748 Q2570.375,830.748 2571.0625,830.0605 Q2571.75,829.3574 2572.0781,827.8574 L2572.9844,828.2637 Q2572.5781,829.9668 2571.6094,830.9199 Q2570.6563,831.873 2569.3438,831.873 Z " fill="#000000"/><text fill="#000000" font-family="sans-serif" font-size="14" lengthAdjust="spacing" textLength="58.3516" x="2584" y="831.8105">TLBEntry</text><line style="stroke:#181818;stroke-width:0.5;" x1="2556" x2="2644.3516" y1="842.0137" y2="842.0137"/><line style="stroke:#181818;stroke-width:0.5;" x1="2556" x2="2644.3516" y1="850.0137" y2="850.0137"/></g><!--class PageFaultHandler--><g id="elem_PageFaultHandler"><rect codeLine="19" fill="#F1F1F1" height="48" id="PageFaultHandler" rx="2.5" ry="2.5" style="stroke:#181818;stroke-width:0.5;" width="144.8477" x="2226.5" y="918.0137"/><ellipse cx="2241.5" cy="934.0137" fill="#ADD1B2" rx="11" ry="11" style="stroke:#181818;stroke-width:1.0;"/><path d="M2240.8438,939.873 Q2238.8594,939.873 2237.6875,938.4043 Q2236.5313,936.9199 2236.5313,933.8418 Q2236.5313,931.2324 2237.75,929.4824 Q2238.9844,927.7324 2241.1094,927.7324 Q2241.6094,927.7324 2242.1406,927.873 Q2242.5781,928.0605 2242.8438,928.0605 Q2243.0625,928.0605 2243.1563,928.0137 Q2243.2656,927.9668 2243.7188,927.373 L2244.4844,931.1074 L2243.5938,931.373 Q2243.1406,929.9199 2242.5313,929.3262 Q2241.9375,928.7168 2240.9844,928.7168 Q2239.7656,928.7168 2239.0469,930.1543 Q2238.3281,931.5762 2238.3281,933.7637 Q2238.3281,936.1699 2238.9375,937.4668 Q2239.5625,938.748 2240.9219,938.748 Q2241.875,938.748 2242.5625,938.0605 Q2243.25,937.3574 2243.5781,935.8574 L2244.4844,936.2637 Q2244.0781,937.9668 2243.1094,938.9199 Q2242.1563,939.873 2240.8438,939.873 Z " fill="#000000"/><text fill="#000000" font-family="sans-serif" font-size="14" lengthAdjust="spacing" textLength="112.8477" x="2255.5" y="939.8105">PageFaultHandler</text><line style="stroke:#181818;stroke-width:0.5;" x1="2227.5" x2="2370.3477" y1="950.0137" y2="950.0137"/><line style="stroke:#181818;stroke-width:0.5;" x1="2227.5" x2="2370.3477" y1="958.0137" y2="958.0137"/></g><!--class PageTableArea--><g id="elem_PageTableArea"><rect codeLine="23" fill="#F1F1F1" height="48" id="PageTableArea" rx="2.5" ry="2.5" style="stroke:#181818;stroke-width:0.5;" width="129.2891" x="2406.5" y="918.0137"/><ellipse cx="2421.5" cy="934.0137" fill="#ADD1B2" rx="11" ry="11" style="stroke:#181818;stroke-width:1.0;"/><path d="M2420.8438,939.873 Q2418.8594,939.873 2417.6875,938.4043 Q2416.5313,936.9199 2416.5313,933.8418 Q2416.5313,931.2324 2417.75,929.4824 Q2418.9844,927.7324 2421.1094,927.7324 Q2421.6094,927.7324 2422.1406,927.873 Q2422.5781,928.0605 2422.8438,928.0605 Q2423.0625,928.0605 2423.1563,928.0137 Q2423.2656,927.9668 2423.7188,927.373 L2424.4844,931.1074 L2423.5938,931.373 Q2423.1406,929.9199 2422.5313,929.3262 Q2421.9375,928.7168 2420.9844,928.7168 Q2419.7656,928.7168 2419.0469,930.1543 Q2418.3281,931.5762 2418.3281,933.7637 Q2418.3281,936.1699 2418.9375,937.4668 Q2419.5625,938.748 2420.9219,938.748 Q2421.875,938.748 2422.5625,938.0605 Q2423.25,937.3574 2423.5781,935.8574 L2424.4844,936.2637 Q2424.0781,937.9668 2423.1094,938.9199 Q2422.1563,939.873 2420.8438,939.873 Z " fill="#000000"/><text fill="#000000" font-family="sans-serif" font-size="14" lengthAdjust="spacing" textLength="97.2891" x="2435.5" y="939.8105">PageTableArea</text><line style="stroke:#181818;stroke-width:0.5;" x1="2407.5" x2="2534.7891" y1="950.0137" y2="950.0137"/><line style="stroke:#181818;stroke-width:0.5;" x1="2407.5" x2="2534.7891" y1="958.0137" y2="958.0137"/></g><!--class MemoryManagementImpl--><g id="elem_MemoryManagementImpl"><rect codeLine="45" fill="#F1F1F1" height="48" id="MemoryManagementImpl" rx="2.5" ry="2.5" style="stroke:#181818;stroke-width:0.5;" width="190.7236" x="2000.5" y="918.0137"/><ellipse cx="2015.5" cy="934.0137" fill="#ADD1B2" rx="11" ry="11" style="stroke:#181818;stroke-width:1.0;"/><path d="M2014.8438,939.873 Q2012.8594,939.873 2011.6875,938.4043 Q2010.5313,936.9199 2010.5313,933.8418 Q2010.5313,931.2324 2011.75,929.4824 Q2012.9844,927.7324 2015.1094,927.7324 Q2015.6094,927.7324 2016.1406,927.873 Q2016.5781,928.0605 2016.8438,928.0605 Q2017.0625,928.0605 2017.1563,928.0137 Q2017.2656,927.9668 2017.7188,927.373 L2018.4844,931.1074 L2017.5938,931.373 Q2017.1406,929.9199 2016.5313,929.3262 Q2015.9375,928.7168 2014.9844,928.7168 Q2013.7656,928.7168 2013.0469,930.1543 Q2012.3281,931.5762 2012.3281,933.7637 Q2012.3281,936.1699 2012.9375,937.4668 Q2013.5625,938.748 2014.9219,938.748 Q2015.875,938.748 2016.5625,938.0605 Q2017.25,937.3574 2017.5781,935.8574 L2018.4844,936.2637 Q2018.0781,937.9668 2017.1094,938.9199 Q2016.1563,939.873 2014.8438,939.873 Z " fill="#000000"/><text fill="#000000" font-family="sans-serif" font-size="14" lengthAdjust="spacing" textLength="158.7236" x="2029.5" y="939.8105">MemoryManagementImpl</text><line style="stroke:#181818;stroke-width:0.5;" x1="2001.5" x2="2190.2236" y1="950.0137" y2="950.0137"/><line style="stroke:#181818;stroke-width:0.5;" x1="2001.5" x2="2190.2236" y1="958.0137" y2="958.0137"/></g><!--class PageTableEntry--><g id="elem_PageTableEntry"><rect codeLine="51" fill="#F1F1F1" height="48" id="PageTableEntry" rx="2.5" ry="2.5" style="stroke:#181818;stroke-width:0.5;" width="132.3926" x="2571" y="918.0137"/><ellipse cx="2586" cy="934.0137" fill="#ADD1B2" rx="11" ry="11" style="stroke:#181818;stroke-width:1.0;"/><path d="M2585.3438,939.873 Q2583.3594,939.873 2582.1875,938.4043 Q2581.0313,936.9199 2581.0313,933.8418 Q2581.0313,931.2324 2582.25,929.4824 Q2583.4844,927.7324 2585.6094,927.7324 Q2586.1094,927.7324 2586.6406,927.873 Q2587.0781,928.0605 2587.3438,928.0605 Q2587.5625,928.0605 2587.6563,928.0137 Q2587.7656,927.9668 2588.2188,927.373 L2588.9844,931.1074 L2588.0938,931.373 Q2587.6406,929.9199 2587.0313,929.3262 Q2586.4375,928.7168 2585.4844,928.7168 Q2584.2656,928.7168 2583.5469,930.1543 Q2582.8281,931.5762 2582.8281,933.7637 Q2582.8281,936.1699 2583.4375,937.4668 Q2584.0625,938.748 2585.4219,938.748 Q2586.375,938.748 2587.0625,938.0605 Q2587.75,937.3574 2588.0781,935.8574 L2588.9844,936.2637 Q2588.5781,937.9668 2587.6094,938.9199 Q2586.6563,939.873 2585.3438,939.873 Z " fill="#000000"/><text fill="#000000" font-family="sans-serif" font-size="14" lengthAdjust="spacing" textLength="100.3926" x="2600" y="939.8105">PageTableEntry</text><line style="stroke:#181818;stroke-width:0.5;" x1="2572" x2="2702.3926" y1="950.0137" y2="950.0137"/><line style="stroke:#181818;stroke-width:0.5;" x1="2572" x2="2702.3926" y1="958.0137" y2="958.0137"/></g><!--class PageTable--><g id="elem_PageTable"><rect codeLine="61" fill="#F1F1F1" height="48" id="PageTable" rx="2.5" ry="2.5" style="stroke:#181818;stroke-width:0.5;" width="99.7168" x="2738" y="918.0137"/><ellipse cx="2753" cy="934.0137" fill="#ADD1B2" rx="11" ry="11" style="stroke:#181818;stroke-width:1.0;"/><path d="M2752.3438,939.873 Q2750.3594,939.873 2749.1875,938.4043 Q2748.0313,936.9199 2748.0313,933.8418 Q2748.0313,931.2324 2749.25,929.4824 Q2750.4844,927.7324 2752.6094,927.7324 Q2753.1094,927.7324 2753.6406,927.873 Q2754.0781,928.0605 2754.3438,928.0605 Q2754.5625,928.0605 2754.6563,928.0137 Q2754.7656,927.9668 2755.2188,927.373 L2755.9844,931.1074 L2755.0938,931.373 Q2754.6406,929.9199 2754.0313,929.3262 Q2753.4375,928.7168 2752.4844,928.7168 Q2751.2656,928.7168 2750.5469,930.1543 Q2749.8281,931.5762 2749.8281,933.7637 Q2749.8281,936.1699 2750.4375,937.4668 Q2751.0625,938.748 2752.4219,938.748 Q2753.375,938.748 2754.0625,938.0605 Q2754.75,937.3574 2755.0781,935.8574 L2755.9844,936.2637 Q2755.5781,937.9668 2754.6094,938.9199 Q2753.6563,939.873 2752.3438,939.873 Z " fill="#000000"/><text fill="#000000" font-family="sans-serif" font-size="14" lengthAdjust="spacing" textLength="67.7168" x="2767" y="939.8105">PageTable</text><line style="stroke:#181818;stroke-width:0.5;" x1="2739" x2="2836.7168" y1="950.0137" y2="950.0137"/><line style="stroke:#181818;stroke-width:0.5;" x1="2739" x2="2836.7168" y1="958.0137" y2="958.0137"/></g><!--class MemoryManagement--><g id="elem_MemoryManagement"><rect codeLine="80" fill="#F1F1F1" height="48" id="MemoryManagement" rx="2.5" ry="2.5" style="stroke:#181818;stroke-width:0.5;" width="164.2754" x="2014" y="810.0137"/><ellipse cx="2029" cy="826.0137" fill="#B4A7E5" rx="11" ry="11" style="stroke:#181818;stroke-width:1.0;"/><path d="M2025.5938,820.7949 L2025.5938,819.8574 L2031.4375,819.8574 L2031.4375,820.7949 L2029.6406,820.7949 Q2029.4688,820.7949 2029.3906,820.8574 Q2029.3125,820.9199 2029.3125,821.0605 L2029.3125,830.5449 Q2029.3125,830.6855 2029.3906,830.748 Q2029.4688,830.8105 2029.6406,830.8105 L2031.4375,830.8105 L2031.4375,831.748 L2025.5938,831.748 L2025.5938,830.8105 L2027.3906,830.8105 Q2027.6094,830.8105 2027.6563,830.7637 Q2027.7188,830.7012 2027.7188,830.5449 L2027.7188,821.0605 Q2027.7188,820.9043 2027.6563,820.8574 Q2027.6094,820.7949 2027.3906,820.7949 L2025.5938,820.7949 Z " fill="#000000"/><text fill="#000000" font-family="sans-serif" font-size="14" font-style="italic" lengthAdjust="spacing" textLength="132.2754" x="2043" y="831.8105">MemoryManagement</text><line style="stroke:#181818;stroke-width:0.5;" x1="2015" x2="2177.2754" y1="842.0137" y2="842.0137"/><line style="stroke:#181818;stroke-width:0.5;" x1="2015" x2="2177.2754" y1="850.0137" y2="850.0137"/></g><!--class Memory--><g id="elem_Memory"><rect codeLine="92" fill="#F1F1F1" height="48" id="Memory" rx="2.5" ry="2.5" style="stroke:#181818;stroke-width:0.5;" width="82.5586" x="2257.5" y="1026.0137"/><ellipse cx="2272.5" cy="1042.0137" fill="#ADD1B2" rx="11" ry="11" style="stroke:#181818;stroke-width:1.0;"/><path d="M2271.8438,1047.873 Q2269.8594,1047.873 2268.6875,1046.4043 Q2267.5313,1044.9199 2267.5313,1041.8418 Q2267.5313,1039.2324 2268.75,1037.4824 Q2269.9844,1035.7324 2272.1094,1035.7324 Q2272.6094,1035.7324 2273.1406,1035.873 Q2273.5781,1036.0605 2273.8438,1036.0605 Q2274.0625,1036.0605 2274.1563,1036.0137 Q2274.2656,1035.9668 2274.7188,1035.373 L2275.4844,1039.1074 L2274.5938,1039.373 Q2274.1406,1037.9199 2273.5313,1037.3262 Q2272.9375,1036.7168 2271.9844,1036.7168 Q2270.7656,1036.7168 2270.0469,1038.1543 Q2269.3281,1039.5762 2269.3281,1041.7637 Q2269.3281,1044.1699 2269.9375,1045.4668 Q2270.5625,1046.748 2271.9219,1046.748 Q2272.875,1046.748 2273.5625,1046.0605 Q2274.25,1045.3574 2274.5781,1043.8574 L2275.4844,1044.2637 Q2275.0781,1045.9668 2274.1094,1046.9199 Q2273.1563,1047.873 2271.8438,1047.873 Z " fill="#000000"/><text fill="#000000" font-family="sans-serif" font-size="14" lengthAdjust="spacing" textLength="50.5586" x="2286.5" y="1047.8105">Memory</text><line style="stroke:#181818;stroke-width:0.5;" x1="2258.5" x2="2339.0586" y1="1058.0137" y2="1058.0137"/><line style="stroke:#181818;stroke-width:0.5;" x1="2258.5" x2="2339.0586" y1="1066.0137" y2="1066.0137"/></g><!--class MemoryBlockStatus--><g id="elem_MemoryBlockStatus"><rect codeLine="94" fill="#F1F1F1" height="48" id="MemoryBlockStatus" rx="2.5" ry="2.5" style="stroke:#181818;stroke-width:0.5;" width="156.4824" x="2376" y="1026.0137"/><ellipse cx="2391" cy="1042.0137" fill="#ADD1B2" rx="11" ry="11" style="stroke:#181818;stroke-width:1.0;"/><path d="M2390.3438,1047.873 Q2388.3594,1047.873 2387.1875,1046.4043 Q2386.0313,1044.9199 2386.0313,1041.8418 Q2386.0313,1039.2324 2387.25,1037.4824 Q2388.4844,1035.7324 2390.6094,1035.7324 Q2391.1094,1035.7324 2391.6406,1035.873 Q2392.0781,1036.0605 2392.3438,1036.0605 Q2392.5625,1036.0605 2392.6563,1036.0137 Q2392.7656,1035.9668 2393.2188,1035.373 L2393.9844,1039.1074 L2393.0938,1039.373 Q2392.6406,1037.9199 2392.0313,1037.3262 Q2391.4375,1036.7168 2390.4844,1036.7168 Q2389.2656,1036.7168 2388.5469,1038.1543 Q2387.8281,1039.5762 2387.8281,1041.7637 Q2387.8281,1044.1699 2388.4375,1045.4668 Q2389.0625,1046.748 2390.4219,1046.748 Q2391.375,1046.748 2392.0625,1046.0605 Q2392.75,1045.3574 2393.0781,1043.8574 L2393.9844,1044.2637 Q2393.5781,1045.9668 2392.6094,1046.9199 Q2391.6563,1047.873 2390.3438,1047.873 Z " fill="#000000"/><text fill="#000000" font-family="sans-serif" font-size="14" lengthAdjust="spacing" textLength="124.4824" x="2405" y="1047.8105">MemoryBlockStatus</text><line style="stroke:#181818;stroke-width:0.5;" x1="2377" x2="2531.4824" y1="1058.0137" y2="1058.0137"/><line style="stroke:#181818;stroke-width:0.5;" x1="2377" x2="2531.4824" y1="1066.0137" y2="1066.0137"/></g><!--class FileSystemImpl--><g id="elem_FileSystemImpl"><rect codeLine="21" fill="#F1F1F1" height="48" id="FileSystemImpl" rx="2.5" ry="2.5" style="stroke:#181818;stroke-width:0.5;" width="127.6826" x="1607" y="918.0137"/><ellipse cx="1622" cy="934.0137" fill="#ADD1B2" rx="11" ry="11" style="stroke:#181818;stroke-width:1.0;"/><path d="M1621.3438,939.873 Q1619.3594,939.873 1618.1875,938.4043 Q1617.0313,936.9199 1617.0313,933.8418 Q1617.0313,931.2324 1618.25,929.4824 Q1619.4844,927.7324 1621.6094,927.7324 Q1622.1094,927.7324 1622.6406,927.873 Q1623.0781,928.0605 1623.3438,928.0605 Q1623.5625,928.0605 1623.6563,928.0137 Q1623.7656,927.9668 1624.2188,927.373 L1624.9844,931.1074 L1624.0938,931.373 Q1623.6406,929.9199 1623.0313,929.3262 Q1622.4375,928.7168 1621.4844,928.7168 Q1620.2656,928.7168 1619.5469,930.1543 Q1618.8281,931.5762 1618.8281,933.7637 Q1618.8281,936.1699 1619.4375,937.4668 Q1620.0625,938.748 1621.4219,938.748 Q1622.375,938.748 1623.0625,938.0605 Q1623.75,937.3574 1624.0781,935.8574 L1624.9844,936.2637 Q1624.5781,937.9668 1623.6094,938.9199 Q1622.6563,939.873 1621.3438,939.873 Z " fill="#000000"/><text fill="#000000" font-family="sans-serif" font-size="14" lengthAdjust="spacing" textLength="95.6826" x="1636" y="939.8105">FileSystemImpl</text><line style="stroke:#181818;stroke-width:0.5;" x1="1608" x2="1733.6826" y1="950.0137" y2="950.0137"/><line style="stroke:#181818;stroke-width:0.5;" x1="1608" x2="1733.6826" y1="958.0137" y2="958.0137"/></g><!--class Bitmap--><g id="elem_Bitmap"><rect codeLine="37" fill="#F1F1F1" height="48" id="Bitmap" rx="2.5" ry="2.5" style="stroke:#181818;stroke-width:0.5;" width="75.5723" x="1745" y="810.0137"/><ellipse cx="1760" cy="826.0137" fill="#ADD1B2" rx="11" ry="11" style="stroke:#181818;stroke-width:1.0;"/><path d="M1759.3438,831.873 Q1757.3594,831.873 1756.1875,830.4043 Q1755.0313,828.9199 1755.0313,825.8418 Q1755.0313,823.2324 1756.25,821.4824 Q1757.4844,819.7324 1759.6094,819.7324 Q1760.1094,819.7324 1760.6406,819.873 Q1761.0781,820.0605 1761.3438,820.0605 Q1761.5625,820.0605 1761.6563,820.0137 Q1761.7656,819.9668 1762.2188,819.373 L1762.9844,823.1074 L1762.0938,823.373 Q1761.6406,821.9199 1761.0313,821.3262 Q1760.4375,820.7168 1759.4844,820.7168 Q1758.2656,820.7168 1757.5469,822.1543 Q1756.8281,823.5762 1756.8281,825.7637 Q1756.8281,828.1699 1757.4375,829.4668 Q1758.0625,830.748 1759.4219,830.748 Q1760.375,830.748 1761.0625,830.0605 Q1761.75,829.3574 1762.0781,827.8574 L1762.9844,828.2637 Q1762.5781,829.9668 1761.6094,830.9199 Q1760.6563,831.873 1759.3438,831.873 Z " fill="#000000"/><text fill="#000000" font-family="sans-serif" font-size="14" lengthAdjust="spacing" textLength="43.5723" x="1774" y="831.8105">Bitmap</text><line style="stroke:#181818;stroke-width:0.5;" x1="1746" x2="1819.5723" y1="842.0137" y2="842.0137"/><line style="stroke:#181818;stroke-width:0.5;" x1="1746" x2="1819.5723" y1="850.0137" y2="850.0137"/></g><!--class Directory--><g id="elem_Directory"><rect codeLine="43" fill="#F1F1F1" height="48" id="Directory" rx="2.5" ry="2.5" style="stroke:#181818;stroke-width:0.5;" width="88.0068" x="1856" y="810.0137"/><ellipse cx="1871" cy="826.0137" fill="#ADD1B2" rx="11" ry="11" style="stroke:#181818;stroke-width:1.0;"/><path d="M1870.3438,831.873 Q1868.3594,831.873 1867.1875,830.4043 Q1866.0313,828.9199 1866.0313,825.8418 Q1866.0313,823.2324 1867.25,821.4824 Q1868.4844,819.7324 1870.6094,819.7324 Q1871.1094,819.7324 1871.6406,819.873 Q1872.0781,820.0605 1872.3438,820.0605 Q1872.5625,820.0605 1872.6563,820.0137 Q1872.7656,819.9668 1873.2188,819.373 L1873.9844,823.1074 L1873.0938,823.373 Q1872.6406,821.9199 1872.0313,821.3262 Q1871.4375,820.7168 1870.4844,820.7168 Q1869.2656,820.7168 1868.5469,822.1543 Q1867.8281,823.5762 1867.8281,825.7637 Q1867.8281,828.1699 1868.4375,829.4668 Q1869.0625,830.748 1870.4219,830.748 Q1871.375,830.748 1872.0625,830.0605 Q1872.75,829.3574 1873.0781,827.8574 L1873.9844,828.2637 Q1873.5781,829.9668 1872.6094,830.9199 Q1871.6563,831.873 1870.3438,831.873 Z " fill="#000000"/><text fill="#000000" font-family="sans-serif" font-size="14" lengthAdjust="spacing" textLength="56.0068" x="1885" y="831.8105">Directory</text><line style="stroke:#181818;stroke-width:0.5;" x1="1857" x2="1943.0068" y1="842.0137" y2="842.0137"/><line style="stroke:#181818;stroke-width:0.5;" x1="1857" x2="1943.0068" y1="850.0137" y2="850.0137"/></g><!--class Inode--><g id="elem_Inode"><rect codeLine="47" fill="#F1F1F1" height="48" id="Inode" rx="2.5" ry="2.5" style="stroke:#181818;stroke-width:0.5;" width="67.0342" x="1770.5" y="918.0137"/><ellipse cx="1785.5" cy="934.0137" fill="#ADD1B2" rx="11" ry="11" style="stroke:#181818;stroke-width:1.0;"/><path d="M1784.8438,939.873 Q1782.8594,939.873 1781.6875,938.4043 Q1780.5313,936.9199 1780.5313,933.8418 Q1780.5313,931.2324 1781.75,929.4824 Q1782.9844,927.7324 1785.1094,927.7324 Q1785.6094,927.7324 1786.1406,927.873 Q1786.5781,928.0605 1786.8438,928.0605 Q1787.0625,928.0605 1787.1563,928.0137 Q1787.2656,927.9668 1787.7188,927.373 L1788.4844,931.1074 L1787.5938,931.373 Q1787.1406,929.9199 1786.5313,929.3262 Q1785.9375,928.7168 1784.9844,928.7168 Q1783.7656,928.7168 1783.0469,930.1543 Q1782.3281,931.5762 1782.3281,933.7637 Q1782.3281,936.1699 1782.9375,937.4668 Q1783.5625,938.748 1784.9219,938.748 Q1785.875,938.748 1786.5625,938.0605 Q1787.25,937.3574 1787.5781,935.8574 L1788.4844,936.2637 Q1788.0781,937.9668 1787.1094,938.9199 Q1786.1563,939.873 1784.8438,939.873 Z " fill="#000000"/><text fill="#000000" font-family="sans-serif" font-size="14" lengthAdjust="spacing" textLength="35.0342" x="1799.5" y="939.8105">Inode</text><line style="stroke:#181818;stroke-width:0.5;" x1="1771.5" x2="1836.5342" y1="950.0137" y2="950.0137"/><line style="stroke:#181818;stroke-width:0.5;" x1="1771.5" x2="1836.5342" y1="958.0137" y2="958.0137"/></g><!--class FileDiskManagement--><g id="elem_FileDiskManagement"><rect codeLine="49" fill="#F1F1F1" height="48" id="FileDiskManagement" rx="2.5" ry="2.5" style="stroke:#181818;stroke-width:0.5;" width="163.4961" x="1546.5" y="810.0137"/><ellipse cx="1561.5" cy="826.0137" fill="#B4A7E5" rx="11" ry="11" style="stroke:#181818;stroke-width:1.0;"/><path d="M1558.0938,820.7949 L1558.0938,819.8574 L1563.9375,819.8574 L1563.9375,820.7949 L1562.1406,820.7949 Q1561.9688,820.7949 1561.8906,820.8574 Q1561.8125,820.9199 1561.8125,821.0605 L1561.8125,830.5449 Q1561.8125,830.6855 1561.8906,830.748 Q1561.9688,830.8105 1562.1406,830.8105 L1563.9375,830.8105 L1563.9375,831.748 L1558.0938,831.748 L1558.0938,830.8105 L1559.8906,830.8105 Q1560.1094,830.8105 1560.1563,830.7637 Q1560.2188,830.7012 1560.2188,830.5449 L1560.2188,821.0605 Q1560.2188,820.9043 1560.1563,820.8574 Q1560.1094,820.7949 1559.8906,820.7949 L1558.0938,820.7949 Z " fill="#000000"/><text fill="#000000" font-family="sans-serif" font-size="14" font-style="italic" lengthAdjust="spacing" textLength="131.4961" x="1575.5" y="831.8105">FileDiskManagement</text><line style="stroke:#181818;stroke-width:0.5;" x1="1547.5" x2="1708.9961" y1="842.0137" y2="842.0137"/><line style="stroke:#181818;stroke-width:0.5;" x1="1547.5" x2="1708.9961" y1="850.0137" y2="850.0137"/></g><!--class FileLockManager--><g id="elem_FileLockManager"><rect codeLine="53" fill="#F1F1F1" height="48" id="FileLockManager" rx="2.5" ry="2.5" style="stroke:#181818;stroke-width:0.5;" width="139.3857" x="1372.5" y="810.0137"/><ellipse cx="1387.5" cy="826.0137" fill="#ADD1B2" rx="11" ry="11" style="stroke:#181818;stroke-width:1.0;"/><path d="M1386.8438,831.873 Q1384.8594,831.873 1383.6875,830.4043 Q1382.5313,828.9199 1382.5313,825.8418 Q1382.5313,823.2324 1383.75,821.4824 Q1384.9844,819.7324 1387.1094,819.7324 Q1387.6094,819.7324 1388.1406,819.873 Q1388.5781,820.0605 1388.8438,820.0605 Q1389.0625,820.0605 1389.1563,820.0137 Q1389.2656,819.9668 1389.7188,819.373 L1390.4844,823.1074 L1389.5938,823.373 Q1389.1406,821.9199 1388.5313,821.3262 Q1387.9375,820.7168 1386.9844,820.7168 Q1385.7656,820.7168 1385.0469,822.1543 Q1384.3281,823.5762 1384.3281,825.7637 Q1384.3281,828.1699 1384.9375,829.4668 Q1385.5625,830.748 1386.9219,830.748 Q1387.875,830.748 1388.5625,830.0605 Q1389.25,829.3574 1389.5781,827.8574 L1390.4844,828.2637 Q1390.0781,829.9668 1389.1094,830.9199 Q1388.1563,831.873 1386.8438,831.873 Z " fill="#000000"/><text fill="#000000" font-family="sans-serif" font-size="14" lengthAdjust="spacing" textLength="107.3857" x="1401.5" y="831.8105">FileLockManager</text><line style="stroke:#181818;stroke-width:0.5;" x1="1373.5" x2="1510.8857" y1="842.0137" y2="842.0137"/><line style="stroke:#181818;stroke-width:0.5;" x1="1373.5" x2="1510.8857" y1="850.0137" y2="850.0137"/></g><!--class FileLockManager$FileLock--><g id="elem_FileLockManager$FileLock"><rect codeLine="55" fill="#F1F1F1" height="48" id="FileLockManager$FileLock" rx="2.5" ry="2.5" style="stroke:#181818;stroke-width:0.5;" width="199.3027" x="1372.5" y="918.0137"/><ellipse cx="1387.5" cy="934.0137" fill="#ADD1B2" rx="11" ry="11" style="stroke:#181818;stroke-width:1.0;"/><path d="M1386.8438,939.873 Q1384.8594,939.873 1383.6875,938.4043 Q1382.5313,936.9199 1382.5313,933.8418 Q1382.5313,931.2324 1383.75,929.4824 Q1384.9844,927.7324 1387.1094,927.7324 Q1387.6094,927.7324 1388.1406,927.873 Q1388.5781,928.0605 1388.8438,928.0605 Q1389.0625,928.0605 1389.1563,928.0137 Q1389.2656,927.9668 1389.7188,927.373 L1390.4844,931.1074 L1389.5938,931.373 Q1389.1406,929.9199 1388.5313,929.3262 Q1387.9375,928.7168 1386.9844,928.7168 Q1385.7656,928.7168 1385.0469,930.1543 Q1384.3281,931.5762 1384.3281,933.7637 Q1384.3281,936.1699 1384.9375,937.4668 Q1385.5625,938.748 1386.9219,938.748 Q1387.875,938.748 1388.5625,938.0605 Q1389.25,937.3574 1389.5781,935.8574 L1390.4844,936.2637 Q1390.0781,937.9668 1389.1094,938.9199 Q1388.1563,939.873 1386.8438,939.873 Z " fill="#000000"/><text fill="#000000" font-family="sans-serif" font-size="14" lengthAdjust="spacing" textLength="167.3027" x="1401.5" y="939.8105">FileLockManager$FileLock</text><line style="stroke:#181818;stroke-width:0.5;" x1="1373.5" x2="1570.8027" y1="950.0137" y2="950.0137"/><line style="stroke:#181818;stroke-width:0.5;" x1="1373.5" x2="1570.8027" y1="958.0137" y2="958.0137"/></g><!--class FileLockManager$FileLock$WaitingProcess--><g id="elem_FileLockManager$FileLock$WaitingProcess"><rect codeLine="57" fill="#F1F1F1" height="48" id="FileLockManager$FileLock$WaitingProcess" rx="2.5" ry="2.5" style="stroke:#181818;stroke-width:0.5;" width="304.3438" x="1372" y="1026.0137"/><ellipse cx="1387" cy="1042.0137" fill="#ADD1B2" rx="11" ry="11" style="stroke:#181818;stroke-width:1.0;"/><path d="M1386.3438,1047.873 Q1384.3594,1047.873 1383.1875,1046.4043 Q1382.0313,1044.9199 1382.0313,1041.8418 Q1382.0313,1039.2324 1383.25,1037.4824 Q1384.4844,1035.7324 1386.6094,1035.7324 Q1387.1094,1035.7324 1387.6406,1035.873 Q1388.0781,1036.0605 1388.3438,1036.0605 Q1388.5625,1036.0605 1388.6563,1036.0137 Q1388.7656,1035.9668 1389.2188,1035.373 L1389.9844,1039.1074 L1389.0938,1039.373 Q1388.6406,1037.9199 1388.0313,1037.3262 Q1387.4375,1036.7168 1386.4844,1036.7168 Q1385.2656,1036.7168 1384.5469,1038.1543 Q1383.8281,1039.5762 1383.8281,1041.7637 Q1383.8281,1044.1699 1384.4375,1045.4668 Q1385.0625,1046.748 1386.4219,1046.748 Q1387.375,1046.748 1388.0625,1046.0605 Q1388.75,1045.3574 1389.0781,1043.8574 L1389.9844,1044.2637 Q1389.5781,1045.9668 1388.6094,1046.9199 Q1387.6563,1047.873 1386.3438,1047.873 Z " fill="#000000"/><text fill="#000000" font-family="sans-serif" font-size="14" lengthAdjust="spacing" textLength="272.3438" x="1401" y="1047.8105">FileLockManager$FileLock$WaitingProcess</text><line style="stroke:#181818;stroke-width:0.5;" x1="1373" x2="1675.3438" y1="1058.0137" y2="1058.0137"/><line style="stroke:#181818;stroke-width:0.5;" x1="1373" x2="1675.3438" y1="1066.0137" y2="1066.0137"/></g><!--class Disk--><g id="elem_Disk"><rect codeLine="59" fill="#F1F1F1" height="48" id="Disk" rx="2.5" ry="2.5" style="stroke:#181818;stroke-width:0.5;" width="59.2207" x="1872.5" y="918.0137"/><ellipse cx="1887.5" cy="934.0137" fill="#ADD1B2" rx="11" ry="11" style="stroke:#181818;stroke-width:1.0;"/><path d="M1886.8438,939.873 Q1884.8594,939.873 1883.6875,938.4043 Q1882.5313,936.9199 1882.5313,933.8418 Q1882.5313,931.2324 1883.75,929.4824 Q1884.9844,927.7324 1887.1094,927.7324 Q1887.6094,927.7324 1888.1406,927.873 Q1888.5781,928.0605 1888.8438,928.0605 Q1889.0625,928.0605 1889.1563,928.0137 Q1889.2656,927.9668 1889.7188,927.373 L1890.4844,931.1074 L1889.5938,931.373 Q1889.1406,929.9199 1888.5313,929.3262 Q1887.9375,928.7168 1886.9844,928.7168 Q1885.7656,928.7168 1885.0469,930.1543 Q1884.3281,931.5762 1884.3281,933.7637 Q1884.3281,936.1699 1884.9375,937.4668 Q1885.5625,938.748 1886.9219,938.748 Q1887.875,938.748 1888.5625,938.0605 Q1889.25,937.3574 1889.5781,935.8574 L1890.4844,936.2637 Q1890.0781,937.9668 1889.1094,938.9199 Q1888.1563,939.873 1886.8438,939.873 Z " fill="#000000"/><text fill="#000000" font-family="sans-serif" font-size="14" lengthAdjust="spacing" textLength="27.2207" x="1901.5" y="939.8105">Disk</text><line style="stroke:#181818;stroke-width:0.5;" x1="1873.5" x2="1930.7207" y1="950.0137" y2="950.0137"/><line style="stroke:#181818;stroke-width:0.5;" x1="1873.5" x2="1930.7207" y1="958.0137" y2="958.0137"/></g><!--class SystemSnapshot--><g id="elem_SystemSnapshot"><rect codeLine="25" fill="#F1F1F1" height="48" id="SystemSnapshot" rx="2.5" ry="2.5" style="stroke:#181818;stroke-width:0.5;" width="137.834" x="279" y="418.5137"/><ellipse cx="294" cy="434.5137" fill="#ADD1B2" rx="11" ry="11" style="stroke:#181818;stroke-width:1.0;"/><path d="M293.3438,440.373 Q291.3594,440.373 290.1875,438.9043 Q289.0313,437.4199 289.0313,434.3418 Q289.0313,431.7324 290.25,429.9824 Q291.4844,428.2324 293.6094,428.2324 Q294.1094,428.2324 294.6406,428.373 Q295.0781,428.5605 295.3438,428.5605 Q295.5625,428.5605 295.6563,428.5137 Q295.7656,428.4668 296.2188,427.873 L296.9844,431.6074 L296.0938,431.873 Q295.6406,430.4199 295.0313,429.8262 Q294.4375,429.2168 293.4844,429.2168 Q292.2656,429.2168 291.5469,430.6543 Q290.8281,432.0762 290.8281,434.2637 Q290.8281,436.6699 291.4375,437.9668 Q292.0625,439.248 293.4219,439.248 Q294.375,439.248 295.0625,438.5605 Q295.75,437.8574 296.0781,436.3574 L296.9844,436.7637 Q296.5781,438.4668 295.6094,439.4199 Q294.6563,440.373 293.3438,440.373 Z " fill="#000000"/><text fill="#000000" font-family="sans-serif" font-size="14" lengthAdjust="spacing" textLength="105.834" x="308" y="440.3105">SystemSnapshot</text><line style="stroke:#181818;stroke-width:0.5;" x1="280" x2="415.834" y1="450.5137" y2="450.5137"/><line style="stroke:#181818;stroke-width:0.5;" x1="280" x2="415.834" y1="458.5137" y2="458.5137"/></g><!--class DeviceManager--><g id="elem_DeviceManager"><rect codeLine="84" fill="#F1F1F1" height="48" id="DeviceManager" rx="2.5" ry="2.5" style="stroke:#181818;stroke-width:0.5;" width="130.0479" x="719" y="418.5137"/><ellipse cx="734" cy="434.5137" fill="#ADD1B2" rx="11" ry="11" style="stroke:#181818;stroke-width:1.0;"/><path d="M733.3438,440.373 Q731.3594,440.373 730.1875,438.9043 Q729.0313,437.4199 729.0313,434.3418 Q729.0313,431.7324 730.25,429.9824 Q731.4844,428.2324 733.6094,428.2324 Q734.1094,428.2324 734.6406,428.373 Q735.0781,428.5605 735.3438,428.5605 Q735.5625,428.5605 735.6563,428.5137 Q735.7656,428.4668 736.2188,427.873 L736.9844,431.6074 L736.0938,431.873 Q735.6406,430.4199 735.0313,429.8262 Q734.4375,429.2168 733.4844,429.2168 Q732.2656,429.2168 731.5469,430.6543 Q730.8281,432.0762 730.8281,434.2637 Q730.8281,436.6699 731.4375,437.9668 Q732.0625,439.248 733.4219,439.248 Q734.375,439.248 735.0625,438.5605 Q735.75,437.8574 736.0781,436.3574 L736.9844,436.7637 Q736.5781,438.4668 735.6094,439.4199 Q734.6563,440.373 733.3438,440.373 Z " fill="#000000"/><text fill="#000000" font-family="sans-serif" font-size="14" lengthAdjust="spacing" textLength="98.0479" x="748" y="440.3105">DeviceManager</text><line style="stroke:#181818;stroke-width:0.5;" x1="720" x2="848.0479" y1="450.5137" y2="450.5137"/><line style="stroke:#181818;stroke-width:0.5;" x1="720" x2="848.0479" y1="458.5137" y2="458.5137"/></g><!--class IODevice--><g id="elem_IODevice"><rect codeLine="86" fill="#F1F1F1" height="48" id="IODevice" rx="2.5" ry="2.5" style="stroke:#181818;stroke-width:0.5;" width="89.5723" x="473" y="629.0137"/><ellipse cx="488" cy="645.0137" fill="#ADD1B2" rx="11" ry="11" style="stroke:#181818;stroke-width:1.0;"/><path d="M487.3438,650.873 Q485.3594,650.873 484.1875,649.4043 Q483.0313,647.9199 483.0313,644.8418 Q483.0313,642.2324 484.25,640.4824 Q485.4844,638.7324 487.6094,638.7324 Q488.1094,638.7324 488.6406,638.873 Q489.0781,639.0605 489.3438,639.0605 Q489.5625,639.0605 489.6563,639.0137 Q489.7656,638.9668 490.2188,638.373 L490.9844,642.1074 L490.0938,642.373 Q489.6406,640.9199 489.0313,640.3262 Q488.4375,639.7168 487.4844,639.7168 Q486.2656,639.7168 485.5469,641.1543 Q484.8281,642.5762 484.8281,644.7637 Q484.8281,647.1699 485.4375,648.4668 Q486.0625,649.748 487.4219,649.748 Q488.375,649.748 489.0625,649.0605 Q489.75,648.3574 490.0781,646.8574 L490.9844,647.2637 Q490.5781,648.9668 489.6094,649.9199 Q488.6563,650.873 487.3438,650.873 Z " fill="#000000"/><text fill="#000000" font-family="sans-serif" font-size="14" lengthAdjust="spacing" textLength="57.5723" x="502" y="650.8105">IODevice</text><line style="stroke:#181818;stroke-width:0.5;" x1="474" x2="561.5723" y1="661.0137" y2="661.0137"/><line style="stroke:#181818;stroke-width:0.5;" x1="474" x2="561.5723" y1="669.0137" y2="669.0137"/></g><!--class IORequest--><g id="elem_IORequest"><rect codeLine="90" fill="#F1F1F1" height="48" id="IORequest" rx="2.5" ry="2.5" style="stroke:#181818;stroke-width:0.5;" width="98.9238" x="584.5" y="418.5137"/><ellipse cx="599.5" cy="434.5137" fill="#ADD1B2" rx="11" ry="11" style="stroke:#181818;stroke-width:1.0;"/><path d="M598.8438,440.373 Q596.8594,440.373 595.6875,438.9043 Q594.5313,437.4199 594.5313,434.3418 Q594.5313,431.7324 595.75,429.9824 Q596.9844,428.2324 599.1094,428.2324 Q599.6094,428.2324 600.1406,428.373 Q600.5781,428.5605 600.8438,428.5605 Q601.0625,428.5605 601.1563,428.5137 Q601.2656,428.4668 601.7188,427.873 L602.4844,431.6074 L601.5938,431.873 Q601.1406,430.4199 600.5313,429.8262 Q599.9375,429.2168 598.9844,429.2168 Q597.7656,429.2168 597.0469,430.6543 Q596.3281,432.0762 596.3281,434.2637 Q596.3281,436.6699 596.9375,437.9668 Q597.5625,439.248 598.9219,439.248 Q599.875,439.248 600.5625,438.5605 Q601.25,437.8574 601.5781,436.3574 L602.4844,436.7637 Q602.0781,438.4668 601.1094,439.4199 Q600.1563,440.373 598.8438,440.373 Z " fill="#000000"/><text fill="#000000" font-family="sans-serif" font-size="14" lengthAdjust="spacing" textLength="66.9238" x="613.5" y="440.3105">IORequest</text><line style="stroke:#181818;stroke-width:0.5;" x1="585.5" x2="682.4238" y1="450.5137" y2="450.5137"/><line style="stroke:#181818;stroke-width:0.5;" x1="585.5" x2="682.4238" y1="458.5137" y2="458.5137"/></g><!--class Thread--><g id="elem_Thread"><rect fill="#F1F1F1" height="48" id="Thread" rx="2.5" ry="2.5" style="stroke:#181818;stroke-width:0.5;" width="76.3584" x="473" y="418.5137"/><ellipse cx="488" cy="434.5137" fill="#ADD1B2" rx="11" ry="11" style="stroke:#181818;stroke-width:1.0;"/><path d="M487.3438,440.373 Q485.3594,440.373 484.1875,438.9043 Q483.0313,437.4199 483.0313,434.3418 Q483.0313,431.7324 484.25,429.9824 Q485.4844,428.2324 487.6094,428.2324 Q488.1094,428.2324 488.6406,428.373 Q489.0781,428.5605 489.3438,428.5605 Q489.5625,428.5605 489.6563,428.5137 Q489.7656,428.4668 490.2188,427.873 L490.9844,431.6074 L490.0938,431.873 Q489.6406,430.4199 489.0313,429.8262 Q488.4375,429.2168 487.4844,429.2168 Q486.2656,429.2168 485.5469,430.6543 Q484.8281,432.0762 484.8281,434.2637 Q484.8281,436.6699 485.4375,437.9668 Q486.0625,439.248 487.4219,439.248 Q488.375,439.248 489.0625,438.5605 Q489.75,437.8574 490.0781,436.3574 L490.9844,436.7637 Q490.5781,438.4668 489.6094,439.4199 Q488.6563,440.373 487.3438,440.373 Z " fill="#000000"/><text fill="#000000" font-family="sans-serif" font-size="14" lengthAdjust="spacing" textLength="44.3584" x="502" y="440.3105">Thread</text><line style="stroke:#181818;stroke-width:0.5;" x1="474" x2="548.3584" y1="450.5137" y2="450.5137"/><line style="stroke:#181818;stroke-width:0.5;" x1="474" x2="548.3584" y1="458.5137" y2="458.5137"/></g><!--class ApplicationRunner--><g id="elem_ApplicationRunner"><rect fill="#F1F1F1" height="48" id="ApplicationRunner" rx="2.5" ry="2.5" style="stroke:#181818;stroke-width:0.5;" width="146.4063" x="1271" y="133.0137"/><ellipse cx="1286" cy="149.0137" fill="#ADD1B2" rx="11" ry="11" style="stroke:#181818;stroke-width:1.0;"/><path d="M1285.3438,154.873 Q1283.3594,154.873 1282.1875,153.4043 Q1281.0313,151.9199 1281.0313,148.8418 Q1281.0313,146.2324 1282.25,144.4824 Q1283.4844,142.7324 1285.6094,142.7324 Q1286.1094,142.7324 1286.6406,142.873 Q1287.0781,143.0605 1287.3438,143.0605 Q1287.5625,143.0605 1287.6563,143.0137 Q1287.7656,142.9668 1288.2188,142.373 L1288.9844,146.1074 L1288.0938,146.373 Q1287.6406,144.9199 1287.0313,144.3262 Q1286.4375,143.7168 1285.4844,143.7168 Q1284.2656,143.7168 1283.5469,145.1543 Q1282.8281,146.5762 1282.8281,148.7637 Q1282.8281,151.1699 1283.4375,152.4668 Q1284.0625,153.748 1285.4219,153.748 Q1286.375,153.748 1287.0625,153.0605 Q1287.75,152.3574 1288.0781,150.8574 L1288.9844,151.2637 Q1288.5781,152.9668 1287.6094,153.9199 Q1286.6563,154.873 1285.3438,154.873 Z " fill="#000000"/><text fill="#000000" font-family="sans-serif" font-size="14" lengthAdjust="spacing" textLength="114.4063" x="1300" y="154.8105">ApplicationRunner</text><line style="stroke:#181818;stroke-width:0.5;" x1="1272" x2="1416.4063" y1="165.0137" y2="165.0137"/><line style="stroke:#181818;stroke-width:0.5;" x1="1272" x2="1416.4063" y1="173.0137" y2="173.0137"/></g><!--reverse link ApplicationRunner to StartupInitializer--><g id="link_ApplicationRunner_StartupInitializer"><path codeLine="102" d="M1344,199.2137 C1344,252.5037 1344,365.1737 1344,418.3937 " fill="none" id="ApplicationRunner-backto-StartupInitializer" style="stroke:#181818;stroke-width:1.0;stroke-dasharray:7.0,7.0;"/><polygon fill="none" points="1344,181.2137,1338,199.2137,1350,199.2137,1344,181.2137" style="stroke:#181818;stroke-width:1.0;"/></g><!--reverse link FileDiskManagement to FileSystemImpl--><g id="link_FileDiskManagement_FileSystemImpl"><path codeLine="103" d="M1644.0931,874.6948 C1651.2531,892.3548 1654.34,899.9537 1661.54,917.6937 " fill="none" id="FileDiskManagement-backto-FileSystemImpl" style="stroke:#181818;stroke-width:1.0;stroke-dasharray:7.0,7.0;"/><polygon fill="none" points="1637.33,858.0137,1638.5328,876.9492,1649.6535,872.4404,1637.33,858.0137" style="stroke:#181818;stroke-width:1.0;"/></g><!--reverse link MemoryManagement to MemoryManagementImpl--><g id="link_MemoryManagement_MemoryManagementImpl"><path codeLine="104" d="M2096,876.0137 C2096,893.6737 2096,899.9537 2096,917.6937 " fill="none" id="MemoryManagement-backto-MemoryManagementImpl" style="stroke:#181818;stroke-width:1.0;stroke-dasharray:7.0,7.0;"/><polygon fill="none" points="2096,858.0137,2090,876.0137,2102,876.0137,2096,858.0137" style="stroke:#181818;stroke-width:1.0;"/></g><!--reverse link FileLockManager to FileLockManager$FileLock--><g id="link_FileLockManager_FileLockManager$FileLock"><path codeLine="105" d="M1452.8687,873.4085 C1457.8687,891.0685 1460.38,899.9537 1465.4,917.6937 " fill="none" id="FileLockManager-backto-FileLockManager$FileLock" style="stroke:#181818;stroke-width:1.0;stroke-dasharray:7.0,7.0;"/><ellipse cx="1450.6893" cy="865.7111" fill="#FFFFFF" rx="8" ry="8" style="stroke:#181818;stroke-width:1.0;"/><line style="stroke:#181818;stroke-width:1.0;" x1="1452.8687" x2="1448.51" y1="873.4085" y2="858.0137"/><line style="stroke:#181818;stroke-width:1.0;" x1="1442.9919" x2="1458.3868" y1="867.8904" y2="863.5318"/></g><!--reverse link FileLockManager$FileLock to FileLockManager$FileLock$WaitingProcess--><g id="link_FileLockManager$FileLock_FileLockManager$FileLock$WaitingProcess"><path codeLine="106" d="M1490.3311,980.3762 C1499.0011,998.0362 1503.86,1007.9537 1512.56,1025.6937 " fill="none" id="FileLockManager$FileLock-backto-FileLockManager$FileLock$WaitingProcess" style="stroke:#181818;stroke-width:1.0;stroke-dasharray:7.0,7.0;"/><ellipse cx="1486.8056" cy="973.1949" fill="#FFFFFF" rx="8" ry="8" style="stroke:#181818;stroke-width:1.0;"/><line style="stroke:#181818;stroke-width:1.0;" x1="1490.3311" x2="1483.28" y1="980.3762" y2="966.0137"/><line style="stroke:#181818;stroke-width:1.0;" x1="1479.6243" x2="1493.9868" y1="976.7205" y2="969.6694"/></g><!--reverse link Thread to CPU--><g id="link_Thread_CPU"><path codeLine="107" d="M2384.3737,483.9221 C2372.8437,524.0021 2354.23,588.6537 2342.68,628.8037 " fill="none" id="Thread-backto-CPU" style="stroke:#181818;stroke-width:1.0;"/><polygon fill="none" points="2389.35,466.6237,2378.6075,482.2633,2390.1398,485.5809,2389.35,466.6237" style="stroke:#181818;stroke-width:1.0;"/></g><!--reverse link Thread to Scheduler--><g id="link_Thread_Scheduler"><path codeLine="108" d="M2406.5028,484.0488 C2416.8828,524.1288 2433.59,588.6537 2443.99,628.8037 " fill="none" id="Thread-backto-Scheduler" style="stroke:#181818;stroke-width:1.0;"/><polygon fill="none" points="2401.99,466.6237,2400.6944,485.5531,2412.3112,482.5445,2401.99,466.6237" style="stroke:#181818;stroke-width:1.0;"/></g><!--reverse link Thread to IODevice--><g id="link_Thread_IODevice"><path codeLine="109" d="M512.3815,484.6136 C513.7215,524.6936 515.87,588.6537 517.22,628.8037 " fill="none" id="Thread-backto-IODevice" style="stroke:#181818;stroke-width:1.0;"/><polygon fill="none" points="511.78,466.6237,506.3848,484.8141,518.3781,484.4131,511.78,466.6237" style="stroke:#181818;stroke-width:1.0;"/></g><!--SRC=[jLRRjfem47tdAtmuRsSTlg0lNg2bIvG2rjKdLuHHimm9JOAjlVnxmqKFFLK9qRv86BDd9c7sdaa84cB0-DQ6xoZB2TXC9Ad8EQPRE-Si0I5M6Q9e2nbGQGVZqU2dzTjARk4mbS1vaSisqZiPFo2Q4k3TRWg9YJrbMoV3Kc4Zu0USG3SkGvZQaKHS5hb7iSI8u1yw0HD69MT49MT7Eo0a4Z0-cpJYGiRuiNrctr-Om88uD875qv4Xp567F1fbgXOkAeZ-HzrW0giKYttRZQkCqL58o3ortpIH6Aq933cWRWU2ebpicBJhg57psWsSgsLKBOTvJd2296QqWW4jiZv4gasgJ6LPqi-3mSnPbe_G6Kw-L8l5RERDtfVBvT2BcsNiXBut6yREHCKqkEeHbXdA-tEX3n5QsCyuGWS8uMi1GXfMnmHpI2Gpgr2_ilXdWrw1NSp3eoojvQSIk0rIOjItoYVAzfhCNPMkITghgKnPqgJ27-FbwVJ-O7TFIwH4d6uRoXXNaTZVTT_Tu0iq7mSBpOQb22Oaeb8OnOcI7QJ5YPqzjQW1brVCbAOTQpronsvKFgEFRYL7OVaRXDuyzE9AeFof-wbjMmKS8CibFa2dDhNbfH7VDmhJoR5khckE6AS4-iuPAPJx_ggnog9DgdyTUFFQXL4D1Dv4LzqlHTOMwMiNRuuS4KNpiXKMGdUyAtkIvjufNdFKf6TPvSxwtmr76NnZV6-lcHe5MWqzB2XL7_3TBzlkEMHQTpQ4Mo4rHYVBd2it3wlLLgrxEj2pmRalDGlh8GtiKTcyQLsMFfdZdHfaK_LLNbxwjPl_7kFSQYnjST48T5qB_m00]--></g></svg>